<svg xmlns="http://www.w3.org/2000/svg" viewBox="0 0 560.48 321.03"><defs><style>.cls-1{fill:#e0dada;}.cls-2{fill:#dcdcdc;}.cls-3{fill:#fd9f8b;}.cls-4,.cls-5,.cls-9{font-size:17px;fill:#fff;font-family:Helvetica, Helvetica;}.cls-5,.cls-8{letter-spacing:-0.04em;}.cls-6{letter-spacing:-0.05em;}.cls-7{letter-spacing:-0.02em;}.cls-9{letter-spacing:-0.07em;}</style></defs><title>Asset 2</title><g id="Layer_2" data-name="Layer 2"><g id="hexagons"><polygon class="cls-1" points="22.21 37.85 22.21 13.27 43.5 0.98 64.78 13.27 64.78 37.85 43.5 50.13 22.21 37.85"/><path class="cls-2" d="M43.5,1.71,64.15,13.63V37.48L43.5,49.41,22.84,37.48V13.63L43.5,1.71m0-1.46L21.58,12.91v25.3L43.5,50.86,65.41,38.21V12.91L43.5.25Z"/><polygon class="cls-1" points="110.41 89.91 110.41 115.21 88.5 127.86 66.58 115.21 66.58 89.91 88.5 77.25 110.41 89.91"/><polygon class="cls-1" points="112.21 114.85 112.21 90.27 133.5 77.98 154.78 90.27 154.78 114.85 133.5 127.13 112.21 114.85"/><path class="cls-2" d="M133.5,78.71l20.65,11.92v23.85L133.5,126.41l-20.66-11.93V90.63L133.5,78.71m0-1.46L111.58,89.91v25.3l21.92,12.65,21.91-12.65V89.91L133.5,77.25Z"/><polygon class="cls-1" points="200.41 89.91 200.41 115.21 178.5 127.86 156.58 115.21 156.58 89.91 178.5 77.25 200.41 89.91"/><polygon class="cls-1" points="202.21 114.85 202.21 90.27 223.5 77.98 244.78 90.27 244.78 114.85 223.5 127.13 202.21 114.85"/><path class="cls-2" d="M223.5,78.71l20.65,11.92v23.85L223.5,126.41l-20.66-11.93V90.63L223.5,78.71m0-1.46L201.58,89.91v25.3l21.92,12.65,21.91-12.65V89.91L223.5,77.25Z"/><polygon class="cls-1" points="290.41 89.91 290.41 115.21 268.5 127.86 246.58 115.21 246.58 89.91 268.5 77.25 290.41 89.91"/><polygon class="cls-1" points="132.91 128.52 132.91 153.82 111 166.47 89.09 153.82 89.09 128.52 111 115.86 132.91 128.52"/><polygon class="cls-1" points="134.73 153.46 134.73 128.88 156.01 116.59 177.29 128.88 177.29 153.46 156.01 165.74 134.73 153.46"/><path class="cls-2" d="M156,117.32l20.65,11.92v23.85L156,165l-20.65-11.93V129.24L156,117.32m0-1.46L134.1,128.52v25.3L156,166.47l21.91-12.65v-25.3L156,115.86Z"/><polygon class="cls-1" points="222.93 128.52 222.93 153.82 201.02 166.47 179.1 153.82 179.1 128.52 201.02 115.86 222.93 128.52"/><polygon class="cls-1" points="267.94 128.52 267.94 153.82 246.03 166.47 224.11 153.82 224.11 128.52 246.03 115.86 267.94 128.52"/><polygon class="cls-3" points="312.95 128.52 312.95 153.82 291.04 166.47 269.12 153.82 269.12 128.52 291.04 115.86 312.95 128.52"/><polygon class="cls-1" points="357.96 128.52 357.96 153.82 336.04 166.47 314.13 153.82 314.13 128.52 336.04 115.86 357.96 128.52"/><polygon class="cls-1" points="402.97 128.52 402.97 153.82 381.05 166.47 359.14 153.82 359.14 128.52 381.05 115.86 402.97 128.52"/><polygon class="cls-1" points="447.98 128.52 447.98 153.82 426.06 166.47 404.15 153.82 404.15 128.52 426.06 115.86 447.98 128.52"/><polygon class="cls-3" points="492.98 128.52 492.98 153.82 471.07 166.47 449.16 153.82 449.16 128.52 471.07 115.86 492.98 128.52"/><polygon class="cls-1" points="537.99 128.52 537.99 153.82 516.08 166.47 494.17 153.82 494.17 128.52 516.08 115.86 537.99 128.52"/><polygon class="cls-1" points="380.4 89.9 380.4 115.2 358.49 127.85 336.58 115.2 336.58 89.9 358.49 77.25 380.4 89.9"/><polygon class="cls-1" points="427.23 114.83 427.23 90.25 448.51 77.96 469.8 90.25 469.8 114.83 448.51 127.11 427.23 114.83"/><path class="cls-2" d="M448.51,78.69l20.66,11.92v23.85l-20.66,11.93-20.65-11.93V90.61l20.65-11.92m0-1.46L426.6,89.89v25.3l21.91,12.65,21.92-12.65V89.89L448.51,77.23Z"/><polygon class="cls-1" points="515.43 89.89 515.43 115.19 493.52 127.84 471.61 115.19 471.61 89.89 493.52 77.23 515.43 89.89"/><polygon class="cls-1" points="560.44 89.89 560.44 115.19 538.53 127.84 516.62 115.19 516.62 89.89 538.53 77.23 560.44 89.89"/><polygon class="cls-3" points="110.43 167.14 110.43 192.45 88.52 205.1 66.61 192.45 66.61 167.14 88.52 154.49 110.43 167.14"/><polygon class="cls-1" points="112.24 192.08 112.24 167.51 133.53 155.22 154.81 167.51 154.81 192.08 133.53 204.37 112.24 192.08"/><path class="cls-2" d="M133.53,156l20.65,11.92v23.85l-20.65,11.92-20.66-11.92V167.87L133.53,156m0-1.46-21.92,12.65v25.31l21.92,12.65,21.91-12.65V167.14l-21.91-12.65Z"/><polygon class="cls-3" points="200.45 167.14 200.45 192.45 178.53 205.1 156.62 192.45 156.62 167.14 178.53 154.49 200.45 167.14"/><polygon class="cls-1" points="245.46 167.14 245.46 192.45 223.54 205.1 201.63 192.45 201.63 167.14 223.54 154.49 245.46 167.14"/><polygon class="cls-1" points="290.47 167.14 290.47 192.45 268.55 205.1 246.64 192.45 246.64 167.14 268.55 154.49 290.47 167.14"/><polygon class="cls-1" points="335.47 167.14 335.47 192.45 313.56 205.1 291.65 192.45 291.65 167.14 313.56 154.49 335.47 167.14"/><polygon class="cls-1" points="380.48 167.14 380.48 192.45 358.57 205.1 336.66 192.45 336.66 167.14 358.57 154.49 380.48 167.14"/><polygon class="cls-1" points="425.49 167.14 425.49 192.45 403.58 205.1 381.67 192.45 381.67 167.14 403.58 154.49 425.49 167.14"/><polygon class="cls-3" points="470.5 167.14 470.5 192.45 448.59 205.1 426.67 192.45 426.67 167.14 448.59 154.49 470.5 167.14"/><polygon class="cls-3" points="515.5 167.12 515.5 192.43 493.59 205.08 471.67 192.43 471.67 167.12 493.59 154.47 515.5 167.12"/><polygon class="cls-1" points="492.91 51.27 492.91 76.57 471 89.22 449.09 76.57 449.09 51.27 471 38.61 492.91 51.27"/><polygon class="cls-1" points="537.92 51.27 537.92 76.57 516.01 89.22 494.1 76.57 494.1 51.27 516.01 38.61 537.92 51.27"/><polygon class="cls-1" points="560.48 12.65 560.48 37.95 538.56 50.61 516.65 37.95 516.65 12.65 538.56 0 560.48 12.65"/><polygon class="cls-1" points="43.83 282.82 43.83 308.12 21.91 320.78 0 308.12 0 282.82 21.91 270.17 43.83 282.82"/><polygon class="cls-3" points="132.93 205.8 132.93 231.1 111.01 243.76 89.1 231.1 89.1 205.8 111.01 193.15 132.93 205.8"/><polygon class="cls-1" points="177.93 205.8 177.93 231.1 156.02 243.76 134.11 231.1 134.11 205.8 156.02 193.15 177.93 205.8"/><polygon class="cls-1" points="222.94 205.8 222.94 231.1 201.03 243.76 179.12 231.1 179.12 205.8 201.03 193.15 222.94 205.8"/><polygon class="cls-1" points="224.75 230.74 224.75 206.17 246.04 193.88 267.32 206.17 267.32 230.74 246.04 243.03 224.75 230.74"/><path class="cls-2" d="M246,194.61l20.65,11.92v23.85L246,242.3l-20.66-11.92V206.53L246,194.61m0-1.46L224.12,205.8v25.31L246,243.76,268,231.11V205.8L246,193.15Z"/><polygon class="cls-1" points="312.96 205.8 312.96 231.1 291.05 243.76 269.13 231.1 269.13 205.8 291.05 193.15 312.96 205.8"/><polygon class="cls-1" points="357.97 205.8 357.97 231.1 336.05 243.76 314.14 231.1 314.14 205.8 336.05 193.15 357.97 205.8"/><polygon class="cls-1" points="402.98 205.8 402.98 231.1 381.06 243.76 359.15 231.1 359.15 205.8 381.06 193.15 402.98 205.8"/><polygon class="cls-3" points="447.99 205.8 447.99 231.1 426.07 243.76 404.16 231.1 404.16 205.8 426.07 193.15 447.99 205.8"/><polygon class="cls-3" points="492.99 205.8 492.99 231.1 471.08 243.76 449.17 231.1 449.17 205.8 471.08 193.15 492.99 205.8"/><polygon class="cls-1" points="200.44 244.44 200.44 269.74 178.52 282.39 156.61 269.74 156.61 244.44 178.52 231.79 200.44 244.44"/><polygon class="cls-1" points="245.45 244.44 245.45 269.74 223.53 282.39 201.62 269.74 201.62 244.44 223.53 231.79 245.45 244.44"/><polygon class="cls-1" points="290.45 244.44 290.45 269.74 268.54 282.39 246.63 269.74 246.63 244.44 268.54 231.79 290.45 244.44"/><polygon class="cls-1" points="335.46 244.44 335.46 269.74 313.55 282.39 291.64 269.74 291.64 244.44 313.55 231.79 335.46 244.44"/><polygon class="cls-1" points="380.47 244.44 380.47 269.74 358.56 282.39 336.64 269.74 336.64 244.44 358.56 231.79 380.47 244.44"/><polygon class="cls-1" points="425.48 244.44 425.48 269.74 403.57 282.39 381.65 269.74 381.65 244.44 403.57 231.79 425.48 244.44"/><polygon class="cls-1" points="267.95 283.07 267.95 308.38 246.03 321.03 224.12 308.38 224.12 283.07 246.03 270.42 267.95 283.07"/><polygon class="cls-1" points="449.05 282.82 449.05 308.12 427.14 320.78 405.23 308.12 405.23 282.82 427.14 270.17 449.05 282.82"/></g><g id="labels"><text class="cls-4" transform="translate(31.12 31.77)">AK</text><text class="cls-5" transform="translate(74.12 108.77)">W<tspan class="cls-6" x="15.42" y="0">A</tspan></text><text class="cls-4" transform="translate(121.12 108.77)">M<tspan class="cls-7" x="14.16" y="0">T</tspan></text><text class="cls-4" transform="translate(166.12 108.77)">ND</text><text class="cls-4" transform="translate(210.22 108.77)">MN</text><text class="cls-4" transform="translate(258.55 108.77)">WI</text><text class="cls-4" transform="translate(348.81 108.77)">MI</text><text class="cls-4" transform="translate(437.25 108.77)">N<tspan class="cls-7" x="12.28" y="0">Y</tspan></text><text class="cls-4" transform="translate(481.25 108.77)">M<tspan class="cls-6" x="14.16" y="0">A</tspan></text><text class="cls-4" transform="translate(529.8 108.77)">RI</text><text class="cls-4" transform="translate(102.12 147.77)">ID</text><text class="cls-4" transform="translate(143.26 147.77)">W<tspan class="cls-7" x="16.05" y="0">Y</tspan></text><text class="cls-4" transform="translate(190.07 147.77)">SD</text><text class="cls-4" transform="translate(237.71 147.77)">I<tspan class="cls-6" x="4.72" y="0">A</tspan></text><text class="cls-4" transform="translate(284.11 147.77)">I<tspan class="cls-8" x="4.72" y="0">L</tspan></text><text class="cls-4" transform="translate(327.51 147.77)">IN</text><text class="cls-4" transform="translate(368.07 147.77)">OH</text><text class="cls-9" transform="translate(415.09 147.77)">P<tspan class="cls-6" x="10.09" y="0">A</tspan></text><text class="cls-4" transform="translate(460.49 147.77)">NJ</text><text class="cls-4" transform="translate(504.82 147.77)">C<tspan class="cls-7" x="12.28" y="0">T</tspan></text><text class="cls-4" transform="translate(74.87 186.52)">OR</text><text class="cls-4" transform="translate(121.12 186.52)">NV</text><text class="cls-4" transform="translate(166.12 186.52)">CO</text><text class="cls-4" transform="translate(211.77 186.52)">NE</text><text class="cls-4" transform="translate(255.35 186.52)">MO</text><text class="cls-4" transform="translate(301.99 186.52)">K<tspan class="cls-7" x="11.34" y="0">Y</tspan></text><text class="cls-4" transform="translate(344.81 186.52)">WV</text><text class="cls-9" transform="translate(392.06 186.52)">V<tspan class="cls-6" x="10.09" y="0">A</tspan></text><text class="cls-4" transform="translate(436.16 186.52)">MD</text><text class="cls-4" transform="translate(481.25 186.52)">DE</text><text class="cls-4" transform="translate(99.12 224.89)">C<tspan class="cls-6" x="12.28" y="0">A</tspan></text><text class="cls-4" transform="translate(144.85 224.89)">U<tspan class="cls-7" x="12.28" y="0">T</tspan></text><text class="cls-4" transform="translate(188.07 224.89)">NM</text><text class="cls-4" transform="translate(234.35 224.89)">KS</text><text class="cls-4" transform="translate(279.53 224.89)">AR</text><text class="cls-4" transform="translate(324.17 224.89)">TN</text><text class="cls-4" transform="translate(369.07 224.89)">NC</text><text class="cls-4" transform="translate(414.09 224.89)">SC</text><text class="cls-4" transform="translate(459.49 224.89)">DC</text><text class="cls-4" transform="translate(12.74 301.89)">HI</text><text class="cls-4" transform="translate(167.12 262.89)">AZ</text><text class="cls-4" transform="translate(211.77 262.89)">OK</text><text class="cls-4" transform="translate(258.35 262.89)">L<tspan class="cls-6" x="9.45" y="0">A</tspan></text><text class="cls-4" transform="translate(301.75 262.89)">MS</text><text class="cls-4" transform="translate(348.81 262.89)">A<tspan class="cls-8" x="11.34" y="0">L</tspan></text><text class="cls-4" transform="translate(391.9 262.89)">G<tspan class="cls-6" x="13.22" y="0">A</tspan></text><text class="cls-4" transform="translate(234.63 302.89)">TX</text><text class="cls-4" transform="translate(417.55 302.89)">F<tspan class="cls-8" x="10.38" y="0">L</tspan></text><text class="cls-4" transform="translate(459.49 71.54)">V<tspan class="cls-7" x="11.34" y="0">T</tspan></text><text class="cls-4" transform="translate(504.82 71.54)">NH</text><text class="cls-4" transform="translate(526.38 31.77)">ME</text></g></g></svg>