<svg xmlns="http://www.w3.org/2000/svg" viewBox="0 0 560.48 321.03"><defs><style>.cls-1{fill:#e0dada;}.cls-2{fill:#dcdcdc;}.cls-3{fill:#1790d2;}.cls-4,.cls-5,.cls-9{font-size:17px;fill:#fff;font-family:Helvetica, Helvetica;}.cls-5,.cls-8{letter-spacing:-0.04em;}.cls-6{letter-spacing:-0.05em;}.cls-7{letter-spacing:-0.02em;}.cls-9{letter-spacing:-0.07em;}</style></defs><title>Asset 1</title><g id="Layer_2" data-name="Layer 2"><g id="hexagons"><polygon class="cls-1" points="22.21 37.85 22.21 13.27 43.5 0.98 64.78 13.27 64.78 37.85 43.5 50.13 22.21 37.85"/><path class="cls-2" d="M43.5,1.71,64.15,13.63V37.48L43.5,49.41,22.84,37.48V13.63L43.5,1.71m0-1.46L21.58,12.91v25.3L43.5,50.86,65.41,38.21V12.91L43.5.25Z"/><polygon class="cls-3" points="110.41 89.91 110.41 115.21 88.5 127.86 66.58 115.21 66.58 89.91 88.5 77.25 110.41 89.91"/><polygon class="cls-1" points="112.21 114.85 112.21 90.27 133.5 77.98 154.78 90.27 154.78 114.85 133.5 127.13 112.21 114.85"/><path class="cls-2" d="M133.5,78.71l20.65,11.92v23.85L133.5,126.41l-20.66-11.93V90.63L133.5,78.71m0-1.46L111.58,89.91v25.3l21.92,12.65,21.91-12.65V89.91L133.5,77.25Z"/><polygon class="cls-1" points="157.21 114.85 157.21 90.27 178.5 77.98 199.78 90.27 199.78 114.85 178.5 127.13 157.21 114.85"/><path class="cls-2" d="M178.5,78.71l20.65,11.92v23.85L178.5,126.41l-20.66-11.93V90.63L178.5,78.71m0-1.46L156.58,89.91v25.3l21.92,12.65,21.91-12.65V89.91L178.5,77.25Z"/><polygon class="cls-1" points="202.21 114.85 202.21 90.27 223.5 77.98 244.78 90.27 244.78 114.85 223.5 127.13 202.21 114.85"/><path class="cls-2" d="M223.5,78.71l20.65,11.92v23.85L223.5,126.41l-20.66-11.93V90.63L223.5,78.71m0-1.46L201.58,89.91v25.3l21.92,12.65,21.91-12.65V89.91L223.5,77.25Z"/><polygon class="cls-1" points="247.21 114.85 247.21 90.27 268.5 77.98 289.78 90.27 289.78 114.85 268.5 127.13 247.21 114.85"/><path class="cls-2" d="M268.5,78.71l20.65,11.92v23.85L268.5,126.41l-20.66-11.93V90.63L268.5,78.71m0-1.46L246.58,89.91v25.3l21.92,12.65,21.91-12.65V89.91L268.5,77.25Z"/><polygon class="cls-1" points="89.72 153.46 89.72 128.88 111 116.59 132.28 128.88 132.28 153.46 111 165.74 89.72 153.46"/><path class="cls-2" d="M111,117.32l20.65,11.92v23.85L111,165,90.35,153.09V129.24L111,117.32m0-1.46L89.09,128.52v25.3L111,166.47l21.91-12.65v-25.3L111,115.86Z"/><polygon class="cls-1" points="134.73 153.46 134.73 128.88 156.01 116.59 177.29 128.88 177.29 153.46 156.01 165.74 134.73 153.46"/><path class="cls-2" d="M156,117.32l20.65,11.92v23.85L156,165l-20.65-11.93V129.24L156,117.32m0-1.46L134.1,128.52v25.3L156,166.47l21.91-12.65v-25.3L156,115.86Z"/><polygon class="cls-1" points="179.74 153.46 179.74 128.88 201.02 116.59 222.3 128.88 222.3 153.46 201.02 165.74 179.74 153.46"/><path class="cls-2" d="M201,117.32l20.65,11.92v23.85L201,165l-20.65-11.93V129.24L201,117.32m0-1.46L179.1,128.52v25.3L201,166.47l21.91-12.65v-25.3L201,115.86Z"/><polygon class="cls-3" points="267.94 128.52 267.94 153.82 246.03 166.47 224.11 153.82 224.11 128.52 246.03 115.86 267.94 128.52"/><polygon class="cls-3" points="312.95 128.52 312.95 153.82 291.04 166.47 269.12 153.82 269.12 128.52 291.04 115.86 312.95 128.52"/><polygon class="cls-1" points="314.76 153.46 314.76 128.88 336.04 116.59 357.33 128.88 357.33 153.46 336.04 165.74 314.76 153.46"/><path class="cls-2" d="M336,117.32l20.66,11.92v23.85L336,165l-20.65-11.93V129.24L336,117.32m0-1.46-21.91,12.66v25.3L336,166.47,358,153.82v-25.3L336,115.86Z"/><polygon class="cls-1" points="359.77 153.46 359.77 128.88 381.05 116.59 402.34 128.88 402.34 153.46 381.05 165.74 359.77 153.46"/><path class="cls-2" d="M381.05,117.32l20.66,11.92v23.85L381.05,165,360.4,153.09V129.24l20.65-11.92m0-1.46-21.91,12.66v25.3l21.91,12.65L403,153.82v-25.3l-21.92-12.66Z"/><polygon class="cls-1" points="404.78 153.46 404.78 128.88 426.06 116.59 447.34 128.88 447.34 153.46 426.06 165.74 404.78 153.46"/><path class="cls-2" d="M426.06,117.32l20.65,11.92v23.85L426.06,165l-20.65-11.93V129.24l20.65-11.92m0-1.46-21.91,12.66v25.3l21.91,12.65L448,153.82v-25.3l-21.91-12.66Z"/><polygon class="cls-3" points="492.98 128.52 492.98 153.82 471.07 166.47 449.16 153.82 449.16 128.52 471.07 115.86 492.98 128.52"/><polygon class="cls-1" points="494.8 153.46 494.8 128.88 516.08 116.59 537.36 128.88 537.36 153.46 516.08 165.74 494.8 153.46"/><path class="cls-2" d="M516.08,117.32l20.65,11.92v23.85L516.08,165l-20.65-11.93V129.24l20.65-11.92m0-1.46-21.92,12.66v25.3l21.92,12.65L538,153.82v-25.3l-21.91-12.66Z"/><polygon class="cls-1" points="337.21 114.84 337.21 90.26 358.49 77.97 379.77 90.26 379.77 114.84 358.49 127.13 337.21 114.84"/><path class="cls-2" d="M358.49,78.7l20.65,11.93v23.84L358.49,126.4l-20.65-11.93V90.63L358.49,78.7m0-1.45L336.58,89.9v25.3l21.91,12.65L380.4,115.2V89.9L358.49,77.25Z"/><polygon class="cls-1" points="427.23 114.83 427.23 90.25 448.51 77.96 469.8 90.25 469.8 114.83 448.51 127.11 427.23 114.83"/><path class="cls-2" d="M448.51,78.69l20.66,11.92v23.85l-20.66,11.93-20.65-11.93V90.61l20.65-11.92m0-1.46L426.6,89.89v25.3l21.91,12.65,21.92-12.65V89.89L448.51,77.23Z"/><polygon class="cls-1" points="472.24 114.83 472.24 90.25 493.52 77.96 514.8 90.25 514.8 114.83 493.52 127.11 472.24 114.83"/><path class="cls-2" d="M493.52,78.69l20.65,11.92v23.85l-20.65,11.93-20.65-11.93V90.61l20.65-11.92m0-1.46L471.61,89.89v25.3l21.91,12.65,21.92-12.65V89.89L493.52,77.23Z"/><polygon class="cls-3" points="560.44 89.89 560.44 115.19 538.53 127.84 516.62 115.19 516.62 89.89 538.53 77.23 560.44 89.89"/><polygon class="cls-3" points="110.43 167.14 110.43 192.45 88.52 205.1 66.61 192.45 66.61 167.14 88.52 154.49 110.43 167.14"/><polygon class="cls-1" points="112.24 192.08 112.24 167.51 133.53 155.22 154.81 167.51 154.81 192.08 133.53 204.37 112.24 192.08"/><path class="cls-2" d="M133.53,156l20.65,11.92v23.85l-20.65,11.92-20.66-11.92V167.87L133.53,156m0-1.46-21.92,12.65v25.31l21.92,12.65,21.91-12.65V167.14l-21.91-12.65Z"/><polygon class="cls-1" points="157.25 192.08 157.25 167.51 178.53 155.22 199.82 167.51 199.82 192.08 178.53 204.37 157.25 192.08"/><path class="cls-2" d="M178.54,156l20.65,11.92v23.85l-20.65,11.92-20.66-11.92V167.87L178.54,156m0-1.46-21.92,12.65v25.31l21.92,12.65,21.91-12.65V167.14l-21.91-12.65Z"/><polygon class="cls-1" points="202.26 192.08 202.26 167.51 223.54 155.22 244.83 167.51 244.83 192.08 223.54 204.37 202.26 192.08"/><path class="cls-2" d="M223.54,156l20.66,11.92v23.85l-20.66,11.92-20.65-11.92V167.87L223.54,156m0-1.46-21.91,12.65v25.31l21.91,12.65,21.92-12.65V167.14l-21.92-12.65Z"/><polygon class="cls-3" points="290.47 167.14 290.47 192.45 268.55 205.1 246.64 192.45 246.64 167.14 268.55 154.49 290.47 167.14"/><polygon class="cls-1" points="292.28 192.08 292.28 167.51 313.56 155.22 334.84 167.51 334.84 192.08 313.56 204.37 292.28 192.08"/><path class="cls-2" d="M313.56,156l20.65,11.92v23.85l-20.65,11.92-20.65-11.92V167.87L313.56,156m0-1.46-21.91,12.65v25.31l21.91,12.65,21.91-12.65V167.14l-21.91-12.65Z"/><polygon class="cls-1" points="337.29 192.08 337.29 167.51 358.57 155.22 379.85 167.51 379.85 192.08 358.57 204.37 337.29 192.08"/><path class="cls-2" d="M358.57,156l20.65,11.92v23.85l-20.65,11.92-20.65-11.92V167.87L358.57,156m0-1.46-21.91,12.65v25.31l21.91,12.65,21.91-12.65V167.14l-21.91-12.65Z"/><polygon class="cls-3" points="425.49 167.14 425.49 192.45 403.58 205.1 381.67 192.45 381.67 167.14 403.58 154.49 425.49 167.14"/><polygon class="cls-1" points="427.3 192.08 427.3 167.51 448.59 155.22 469.87 167.51 469.87 192.08 448.59 204.37 427.3 192.08"/><path class="cls-2" d="M448.59,156l20.65,11.92v23.85l-20.65,11.92-20.66-11.92V167.87L448.59,156m0-1.46-21.92,12.65v25.31l21.92,12.65,21.91-12.65V167.14l-21.91-12.65Z"/><polygon class="cls-1" points="472.3 192.06 472.3 167.49 493.59 155.2 514.87 167.49 514.87 192.06 493.59 204.35 472.3 192.06"/><path class="cls-2" d="M493.59,155.93l20.65,11.92V191.7l-20.65,11.92L472.93,191.7V167.85l20.66-11.92m0-1.46-21.92,12.65v25.3l21.92,12.66,21.91-12.66v-25.3l-21.91-12.65Z"/><polygon class="cls-1" points="449.72 76.21 449.72 51.63 471 39.34 492.28 51.63 492.28 76.21 471 88.49 449.72 76.21"/><path class="cls-2" d="M471,40.07,491.65,52V75.84L471,87.77,450.35,75.84V52L471,40.07m0-1.46L449.09,51.27v25.3L471,89.22l21.91-12.65V51.27L471,38.61Z"/><polygon class="cls-1" points="494.73 76.21 494.73 51.63 516.01 39.34 537.29 51.63 537.29 76.21 516.01 88.49 494.73 76.21"/><path class="cls-2" d="M516,40.07,536.66,52V75.84L516,87.77,495.36,75.84V52L516,40.07m0-1.46L494.1,51.27v25.3L516,89.22l21.91-12.65V51.27L516,38.61Z"/><polygon class="cls-3" points="560.48 12.65 560.48 37.95 538.56 50.61 516.65 37.95 516.65 12.65 538.56 0 560.48 12.65"/><polygon class="cls-3" points="43.83 282.82 43.83 308.12 21.91 320.78 0 308.12 0 282.82 21.91 270.17 43.83 282.82"/><polygon class="cls-3" points="132.93 205.8 132.93 231.1 111.01 243.76 89.1 231.1 89.1 205.8 111.01 193.15 132.93 205.8"/><polygon class="cls-3" points="177.93 205.8 177.93 231.1 156.02 243.76 134.11 231.1 134.11 205.8 156.02 193.15 177.93 205.8"/><polygon class="cls-1" points="179.75 230.74 179.75 206.17 201.03 193.88 222.31 206.17 222.31 230.74 201.03 243.03 179.75 230.74"/><path class="cls-2" d="M201,194.61l20.65,11.92v23.85L201,242.3l-20.65-11.92V206.53L201,194.61m0-1.46L179.11,205.8v25.31L201,243.76l21.91-12.65V205.8L201,193.15Z"/><polygon class="cls-1" points="224.75 230.74 224.75 206.17 246.04 193.88 267.32 206.17 267.32 230.74 246.04 243.03 224.75 230.74"/><path class="cls-2" d="M246,194.61l20.65,11.92v23.85L246,242.3l-20.66-11.92V206.53L246,194.61m0-1.46L224.12,205.8v25.31L246,243.76,268,231.11V205.8L246,193.15Z"/><polygon class="cls-1" points="269.76 230.74 269.76 206.17 291.05 193.88 312.33 206.17 312.33 230.74 291.05 243.03 269.76 230.74"/><path class="cls-2" d="M291.05,194.61l20.65,11.92v23.85L291.05,242.3l-20.66-11.92V206.53l20.66-11.92m0-1.46L269.13,205.8v25.31l21.92,12.65L313,231.11V205.8l-21.91-12.65Z"/><polygon class="cls-3" points="357.97 205.8 357.97 231.1 336.05 243.76 314.14 231.1 314.14 205.8 336.05 193.15 357.97 205.8"/><polygon class="cls-3" points="402.98 205.8 402.98 231.1 381.06 243.76 359.15 231.1 359.15 205.8 381.06 193.15 402.98 205.8"/><polygon class="cls-1" points="404.79 230.74 404.79 206.17 426.07 193.88 447.35 206.17 447.35 230.74 426.07 243.03 404.79 230.74"/><path class="cls-2" d="M426.07,194.61l20.65,11.92v23.85L426.07,242.3l-20.65-11.92V206.53l20.65-11.92m0-1.46L404.16,205.8v25.31l21.91,12.65L448,231.11V205.8l-21.91-12.65Z"/><polygon class="cls-1" points="449.8 230.74 449.8 206.17 471.08 193.88 492.36 206.17 492.36 230.74 471.08 243.03 449.8 230.74"/><path class="cls-2" d="M471.08,194.61l20.65,11.92v23.85L471.08,242.3l-20.65-11.92V206.53l20.65-11.92m0-1.46L449.17,205.8v25.31l21.91,12.65L493,231.11V205.8l-21.91-12.65Z"/><polygon class="cls-3" points="200.44 244.44 200.44 269.74 178.52 282.39 156.61 269.74 156.61 244.44 178.52 231.79 200.44 244.44"/><polygon class="cls-3" points="245.45 244.44 245.45 269.74 223.53 282.39 201.62 269.74 201.62 244.44 223.53 231.79 245.45 244.44"/><polygon class="cls-3" points="290.45 244.44 290.45 269.74 268.54 282.39 246.63 269.74 246.63 244.44 268.54 231.79 290.45 244.44"/><polygon class="cls-1" points="292.27 269.38 292.27 244.8 313.55 232.51 334.83 244.8 334.83 269.38 313.55 281.67 292.27 269.38"/><path class="cls-2" d="M313.55,233.24l20.65,11.93V269l-20.65,11.92L292.9,269V245.17l20.65-11.93m0-1.45-21.91,12.65v25.3l21.91,12.65,21.91-12.65v-25.3l-21.91-12.65Z"/><polygon class="cls-1" points="337.27 269.38 337.27 244.8 358.56 232.51 379.84 244.8 379.84 269.38 358.56 281.67 337.27 269.38"/><path class="cls-2" d="M358.56,233.24l20.65,11.93V269l-20.65,11.92L337.91,269V245.17l20.65-11.93m0-1.45-21.92,12.65v25.3l21.92,12.65,21.91-12.65v-25.3l-21.91-12.65Z"/><polygon class="cls-1" points="382.28 269.38 382.28 244.8 403.57 232.51 424.85 244.8 424.85 269.38 403.57 281.67 382.28 269.38"/><path class="cls-2" d="M403.57,233.24l20.65,11.93V269l-20.65,11.92L382.91,269V245.17l20.66-11.93m0-1.45-21.92,12.65v25.3l21.92,12.65,21.91-12.65v-25.3l-21.91-12.65Z"/><polygon class="cls-1" points="224.75 308.01 224.75 283.44 246.03 271.15 267.32 283.44 267.32 308.01 246.03 320.3 224.75 308.01"/><path class="cls-2" d="M246,271.88l20.66,11.92v23.85L246,319.57l-20.65-11.92V283.8L246,271.88m0-1.46-21.91,12.66v25.3L246,321,268,308.38v-25.3L246,270.42Z"/><polygon class="cls-1" points="405.86 307.76 405.86 283.18 427.14 270.9 448.42 283.18 448.42 307.76 427.14 320.05 405.86 307.76"/><path class="cls-2" d="M427.14,271.62l20.65,11.93V307.4l-20.65,11.92L406.49,307.4V283.55l20.65-11.93m0-1.45-21.91,12.65v25.3l21.91,12.66,21.91-12.66v-25.3l-21.91-12.65Z"/></g><g id="labels"><text class="cls-4" transform="translate(31.12 31.77)">AK</text><text class="cls-5" transform="translate(74.12 108.77)">W<tspan class="cls-6" x="15.42" y="0">A</tspan></text><text class="cls-4" transform="translate(121.12 108.77)">M<tspan class="cls-7" x="14.16" y="0">T</tspan></text><text class="cls-4" transform="translate(166.12 108.77)">ND</text><text class="cls-4" transform="translate(210.22 108.77)">MN</text><text class="cls-4" transform="translate(258.55 108.77)">WI</text><text class="cls-4" transform="translate(348.81 108.77)">MI</text><text class="cls-4" transform="translate(437.25 108.77)">N<tspan class="cls-7" x="12.28" y="0">Y</tspan></text><text class="cls-4" transform="translate(481.25 108.77)">M<tspan class="cls-6" x="14.16" y="0">A</tspan></text><text class="cls-4" transform="translate(529.8 108.77)">RI</text><text class="cls-4" transform="translate(102.12 147.77)">ID</text><text class="cls-4" transform="translate(143.26 147.77)">W<tspan class="cls-7" x="16.05" y="0">Y</tspan></text><text class="cls-4" transform="translate(190.07 147.77)">SD</text><text class="cls-4" transform="translate(237.71 147.77)">I<tspan class="cls-6" x="4.72" y="0">A</tspan></text><text class="cls-4" transform="translate(284.11 147.77)">I<tspan class="cls-8" x="4.72" y="0">L</tspan></text><text class="cls-4" transform="translate(327.51 147.77)">IN</text><text class="cls-4" transform="translate(368.07 147.77)">OH</text><text class="cls-9" transform="translate(415.09 147.77)">P<tspan class="cls-6" x="10.09" y="0">A</tspan></text><text class="cls-4" transform="translate(460.49 147.77)">NJ</text><text class="cls-4" transform="translate(504.82 147.77)">C<tspan class="cls-7" x="12.28" y="0">T</tspan></text><text class="cls-4" transform="translate(74.87 186.52)">OR</text><text class="cls-4" transform="translate(121.12 186.52)">NV</text><text class="cls-4" transform="translate(166.12 186.52)">CO</text><text class="cls-4" transform="translate(211.77 186.52)">NE</text><text class="cls-4" transform="translate(255.35 186.52)">MO</text><text class="cls-4" transform="translate(301.99 186.52)">K<tspan class="cls-7" x="11.34" y="0">Y</tspan></text><text class="cls-4" transform="translate(344.81 186.52)">WV</text><text class="cls-9" transform="translate(392.06 186.52)">V<tspan class="cls-6" x="10.09" y="0">A</tspan></text><text class="cls-4" transform="translate(436.16 186.52)">MD</text><text class="cls-4" transform="translate(481.25 186.52)">DE</text><text class="cls-4" transform="translate(99.12 224.89)">C<tspan class="cls-6" x="12.28" y="0">A</tspan></text><text class="cls-4" transform="translate(144.85 224.89)">U<tspan class="cls-7" x="12.28" y="0">T</tspan></text><text class="cls-4" transform="translate(188.07 224.89)">NM</text><text class="cls-4" transform="translate(234.35 224.89)">KS</text><text class="cls-4" transform="translate(279.53 224.89)">AR</text><text class="cls-4" transform="translate(324.17 224.89)">TN</text><text class="cls-4" transform="translate(369.07 224.89)">NC</text><text class="cls-4" transform="translate(414.09 224.89)">SC</text><text class="cls-4" transform="translate(459.49 224.89)">DC</text><text class="cls-4" transform="translate(12.74 301.89)">HI</text><text class="cls-4" transform="translate(167.12 262.89)">AZ</text><text class="cls-4" transform="translate(211.77 262.89)">OK</text><text class="cls-4" transform="translate(258.35 262.89)">L<tspan class="cls-6" x="9.45" y="0">A</tspan></text><text class="cls-4" transform="translate(301.75 262.89)">MS</text><text class="cls-4" transform="translate(348.81 262.89)">A<tspan class="cls-8" x="11.34" y="0">L</tspan></text><text class="cls-4" transform="translate(391.9 262.89)">G<tspan class="cls-6" x="13.22" y="0">A</tspan></text><text class="cls-4" transform="translate(234.63 302.89)">TX</text><text class="cls-4" transform="translate(417.55 302.89)">F<tspan class="cls-8" x="10.38" y="0">L</tspan></text><text class="cls-4" transform="translate(459.49 71.54)">V<tspan class="cls-7" x="11.34" y="0">T</tspan></text><text class="cls-4" transform="translate(504.82 71.54)">NH</text><text class="cls-4" transform="translate(526.38 31.77)">ME</text></g></g></svg>