<svg xmlns="http://www.w3.org/2000/svg" viewBox="0 0 750.12 349.04"><defs><style>.cls-1{fill:#bf7cbb;}.cls-2{font-size:18px;font-family:PTSerif-Regular, PT Serif;}.cls-18,.cls-2{fill:#fff;}.cls-3{fill:#a9c774;}.cls-4{letter-spacing:-0.03em;}.cls-5{fill:#1790d2;}.cls-6{letter-spacing:-0.04em;}.cls-7{fill:#fccd25;}.cls-8{fill:#ed713a;}.cls-9{fill:#fc41c6;}.cls-10{fill:#fd9f8b;}.cls-11{fill:#bbd2f6;}.cls-12{letter-spacing:-0.04em;}.cls-13{fill:#a11315;}.cls-14{letter-spacing:-0.03em;}.cls-15{fill:#4d4d4d;}.cls-16{letter-spacing:-0.03em;}.cls-17{fill:#e0dada;}.cls-18{font-size:92.62px;font-family:Helvetica, Helvetica;}.cls-19{letter-spacing:-0.05em;}.cls-20{fill:none;}</style></defs><title>Asset 3</title><g id="Layer_2" data-name="Layer 2"><g id="background"><rect class="cls-1" x="352.82" y="27.6" width="206.39" height="21.95" rx="10" ry="10"/><text class="cls-2" transform="translate(358.02 43.62)">Mandates Sex Education</text><rect class="cls-3" x="352.82" y="87.29" width="125.77" height="21.95" rx="7.81" ry="7.81"/><text class="cls-2" transform="translate(358.02 104.74)">HI<tspan class="cls-4" x="19.44" y="0">V</tspan><tspan x="31.23" y="0" xml:space="preserve"> Education</tspan></text><rect class="cls-5" x="352.82" y="57.18" width="162.97" height="21.95" rx="8.89" ry="8.89"/><text class="cls-2" transform="translate(358.02 74.96)">Medically <tspan class="cls-6" x="81.84" y="0">A</tspan><tspan x="93.49" y="0">ccurate</tspan></text><rect class="cls-7" x="352.82" y="117.43" width="123.2" height="21.95" rx="7.73" ry="7.73"/><text class="cls-2" transform="translate(355.82 134.1)">Contraception</text><rect class="cls-8" x="352.82" y="147.38" width="98.82" height="21.95" rx="6.92" ry="6.92"/><text class="cls-2" transform="translate(356.82 164.41)">Abstinence</text><rect class="cls-9" x="352.82" y="177.33" width="188.3" height="21.95" rx="9.55" ry="9.55"/><text class="cls-2" transform="translate(357.65 194.35)">Healthy Relationships</text><rect class="cls-10" x="352.82" y="207.27" width="72.17" height="21.95" rx="5.91" ry="5.91"/><text class="cls-2" transform="translate(355.54 223.73)">Consent</text><path class="cls-11" d="M352.82,307.72c0,6,5.94,11,13.19,11H698.72c7.26,0,13.19-4.94,13.19-11s-5.93-11-13.19-11H366C358.76,296.75,352.82,301.68,352.82,307.72Z"/><text class="cls-2" transform="translate(359.54 314.53)">Sexual Decision-making and Sel<tspan class="cls-12" x="256.5" y="0">f</tspan><tspan x="261.95" y="0">-discipline</tspan></text><path class="cls-13" d="M352.82,248.19c0,6,5.61,11,12.47,11H661.4c6.86,0,12.48-4.94,12.48-11s-5.62-11-12.48-11H365.29C358.43,237.22,352.82,242.15,352.82,248.19Z"/><text class="cls-2" transform="translate(359.65 254.28)">Refusal Skills and <tspan class="cls-14" x="145.19" y="0">P</tspan><tspan x="155.37" y="0">ersonal Boundaries</tspan></text><path class="cls-15" d="M352.82,277.91c0,6,5.68,11,12.61,11H668.51c6.94,0,12.61-4.94,12.61-11s-5.67-11-12.61-11H365.43C358.5,266.94,352.82,271.88,352.82,277.91Z"/><text class="cls-2" transform="translate(361.54 284.45)">Dating and Sexual<tspan class="cls-16" x="145.49" y="0"> </tspan><tspan x="149.34" y="0">Violence Prevention</tspan></text></g><g id="labels"><polygon class="cls-17" points="260.85 105.59 260.85 243.45 141.45 312.39 22.06 243.45 22.06 105.59 141.45 36.65 260.85 105.59"/><text class="cls-18" transform="translate(76.65 209.59)">C<tspan class="cls-19" x="66.89" y="0">A</tspan></text><rect class="cls-20" width="750.12" height="349.04"/></g></g></svg>