<svg xmlns="http://www.w3.org/2000/svg" viewBox="0 0 617.66 617.66"><defs><style>.cls-1{fill:#fff2cf;stroke:#010101;stroke-miterlimit:10;}.cls-2{fill:#e0dbda;}.cls-3{fill:#be7db5;}.cls-10,.cls-11,.cls-12,.cls-13,.cls-4,.cls-5,.cls-6,.cls-7,.cls-8,.cls-9{isolation:isolate;}.cls-10,.cls-11,.cls-12,.cls-13,.cls-4,.cls-6,.cls-7,.cls-8,.cls-9{font-size:17px;fill:#fff;font-family:Helvetica, Helvetica;}.cls-6{letter-spacing:-0.04em;}.cls-7{letter-spacing:-0.1em;}.cls-8{letter-spacing:-0.04em;}.cls-9{letter-spacing:-0.08em;}.cls-10{letter-spacing:-0.09em;}.cls-11{letter-spacing:-0.07em;}.cls-12{letter-spacing:-0.04em;}.cls-13{letter-spacing:-0.05em;}</style></defs><title>Asset 10</title><g id="Layer_2" data-name="Layer 2"><g id="Layer_1-2" data-name="Layer 1"><rect class="cls-1" x="0.5" y="0.5" width="616.66" height="616.66"/><g id="Layer_2-2" data-name="Layer 2"><g id="hexagons"><polygon class="cls-2" points="51.18 185.67 51.18 161.09 72.47 148.8 93.75 161.09 93.75 185.67 72.47 197.95 51.18 185.67"/><path class="cls-2" d="M72.47,149.53l20.65,11.92V185.3L72.47,197.23,51.81,185.3V161.45l20.66-11.92m0-1.46L50.55,160.73V186l21.92,12.65L94.38,186v-25.3Z"/><polygon class="cls-2" points="96.18 262.67 96.18 238.09 117.47 225.8 138.75 238.09 138.75 262.67 117.47 274.95 96.18 262.67"/><path class="cls-2" d="M117.47,226.53l20.65,11.92V262.3l-20.65,11.93L96.81,262.3V238.45l20.66-11.92m0-1.46L95.55,237.73V263l21.92,12.65L139.38,263v-25.3Z"/><polygon class="cls-3" points="184.38 237.73 184.38 263.03 162.47 275.68 140.55 263.03 140.55 237.73 162.47 225.07 184.38 237.73"/><polygon class="cls-3" points="229.38 237.73 229.38 263.03 207.47 275.68 185.55 263.03 185.55 237.73 207.47 225.07 229.38 237.73"/><polygon class="cls-3" points="274.38 237.73 274.38 263.03 252.47 275.68 230.55 263.03 230.55 237.73 252.47 225.07 274.38 237.73"/><polygon class="cls-2" points="276.18 262.67 276.18 238.09 297.47 225.8 318.75 238.09 318.75 262.67 297.47 274.95 276.18 262.67"/><path class="cls-2" d="M297.47,226.53l20.65,11.92V262.3l-20.65,11.93L276.81,262.3V238.45l20.66-11.92m0-1.46-21.92,12.66V263l21.92,12.65L319.38,263v-25.3Z"/><polygon class="cls-2" points="118.69 301.28 118.69 276.7 139.97 264.41 161.25 276.7 161.25 301.28 139.97 313.56 118.69 301.28"/><path class="cls-2" d="M140,265.14l20.65,11.92v23.85L140,312.82l-20.65-11.91V277.06L140,265.14m0-1.46-21.91,12.66v25.3L140,314.29l21.91-12.65v-25.3Z"/><polygon class="cls-2" points="163.7 301.28 163.7 276.7 184.98 264.41 206.26 276.7 206.26 301.28 184.98 313.56 163.7 301.28"/><path class="cls-2" d="M185,265.14l20.65,11.92v23.85L185,312.82l-20.65-11.93V277.06L185,265.14m0-1.46-21.9,12.66v25.3L185,314.29l21.91-12.65v-25.3Z"/><polygon class="cls-2" points="208.71 301.28 208.71 276.7 229.99 264.41 251.27 276.7 251.27 301.28 229.99 313.56 208.71 301.28"/><path class="cls-2" d="M230,265.14l20.65,11.92v23.85L230,312.82l-20.65-11.93V277.06L230,265.14m0-1.46-21.9,12.66v25.3L230,314.29l21.91-12.65v-25.3Z"/><polygon class="cls-3" points="296.91 276.34 296.91 301.64 275 314.29 253.08 301.64 253.08 276.34 275 263.68 296.91 276.34"/><polygon class="cls-2" points="298.72 301.28 298.72 276.7 320.01 264.41 341.29 276.7 341.29 301.28 320.01 313.56 298.72 301.28"/><path class="cls-2" d="M320,265.14l20.65,11.92v23.85L320,312.82l-20.66-11.93V277.06L320,265.14m0-1.46-21.92,12.66v25.3L320,314.29l22-12.65v-25.3Z"/><polygon class="cls-2" points="343.73 301.28 343.73 276.7 365.01 264.41 386.3 276.7 386.3 301.28 365.01 313.56 343.73 301.28"/><path class="cls-2" d="M365,265.14l20.66,11.92v23.85L365,312.82l-20.65-11.93V277.06L365,265.14m0-1.46-21.91,12.66v25.3L365,314.29l22-12.65v-25.3Z"/><polygon class="cls-3" points="431.94 276.34 431.94 301.64 410.02 314.29 388.11 301.64 388.11 276.34 410.02 263.68 431.94 276.34"/><polygon class="cls-2" points="433.75 301.28 433.75 276.7 455.03 264.41 476.31 276.7 476.31 301.28 455.03 313.56 433.75 301.28"/><path class="cls-2" d="M455,265.14l20.65,11.92v23.85L455,312.82l-20.65-11.93V277.06L455,265.14m0-1.46-21.91,12.66v25.3L455,314.29,477,301.64v-25.3l-21.91-12.66Z"/><polygon class="cls-3" points="521.95 276.34 521.95 301.64 500.04 314.29 478.13 301.64 478.13 276.34 500.04 263.68 521.95 276.34"/><polygon class="cls-2" points="523.77 301.28 523.77 276.7 545.05 264.41 566.33 276.7 566.33 301.28 545.05 313.56 523.77 301.28"/><path class="cls-2" d="M545.05,265.14l20.65,11.92v23.85l-20.65,11.91L524.4,300.89V277.06l20.65-11.92m0-1.46-21.92,12.66v25.3l21.92,12.65L567,301.64v-25.3l-21.91-12.66Z"/><polygon class="cls-2" points="366.18 262.66 366.18 238.08 387.46 225.79 408.74 238.08 408.74 262.66 387.46 274.95 366.18 262.66"/><path class="cls-2" d="M387.46,226.52l20.65,11.93v23.84l-20.65,11.93-20.65-11.93V238.45l20.65-11.93m0-1.45-21.91,12.65V263l21.91,12.65L409.37,263v-25.3Z"/><polygon class="cls-2" points="456.2 262.65 456.2 238.07 477.48 225.78 498.77 238.07 498.77 262.65 477.48 274.93 456.2 262.65"/><path class="cls-2" d="M477.48,226.51l20.66,11.92v23.85l-20.66,11.93-20.65-11.93V238.43l20.65-11.92m0-1.46-21.91,12.66V263l21.91,12.65L499.4,263v-25.3Z"/><polygon class="cls-2" points="501.21 262.65 501.21 238.07 522.49 225.78 543.77 238.07 543.77 262.65 522.49 274.93 501.21 262.65"/><path class="cls-2" d="M522.49,226.51l20.65,11.92v23.85l-20.65,11.93-20.65-11.93V238.43l20.65-11.92m0-1.46-21.91,12.66V263l21.91,12.65L544.41,263v-25.3Z"/><polygon class="cls-3" points="589.41 237.71 589.41 263.01 567.5 275.66 545.59 263.01 545.59 237.71 567.5 225.05 589.41 237.71"/><polygon class="cls-3" points="139.4 314.96 139.4 340.27 117.49 352.92 95.58 340.27 95.58 314.96 117.49 302.31 139.4 314.96"/><polygon class="cls-3" points="184.41 314.96 184.41 340.27 162.5 352.92 140.58 340.27 140.58 314.96 162.5 302.31 184.41 314.96"/><polygon class="cls-2" points="186.22 339.9 186.22 315.33 207.5 303.04 228.79 315.33 228.79 339.9 207.5 352.19 186.22 339.9"/><path class="cls-2" d="M207.51,303.82l20.65,11.92v23.85l-20.65,11.92-20.66-11.92v-23.9l20.66-11.87m0-1.46L185.59,315v25.31L207.51,353l21.91-12.65V315l-21.91-12.65Z"/><polygon class="cls-2" points="231.23 339.9 231.23 315.33 252.51 303.04 273.8 315.33 273.8 339.9 252.51 352.19 231.23 339.9"/><path class="cls-2" d="M252.51,303.82l20.66,11.92v23.85l-20.66,11.92-20.65-11.92v-23.9l20.65-11.87m0-1.46L230.6,315v25.31L252.51,353l21.92-12.65V315l-21.92-12.65Z"/><polygon class="cls-2" points="276.24 339.9 276.24 315.33 297.52 303.04 318.81 315.33 318.81 339.9 297.52 352.19 276.24 339.9"/><path class="cls-2" d="M297.52,303.82l20.66,11.92v23.85l-20.66,11.92-20.65-12V315.69l20.65-11.87m0-1.46L275.61,315v25.31L297.52,353l21.92-12.65V315l-21.92-12.65Z"/><polygon class="cls-3" points="364.44 314.96 364.44 340.27 342.53 352.92 320.62 340.27 320.62 314.96 342.53 302.31 364.44 314.96"/><polygon class="cls-3" points="409.45 314.96 409.45 340.27 387.54 352.92 365.63 340.27 365.63 314.96 387.54 302.31 409.45 314.96"/><polygon class="cls-3" points="454.46 314.96 454.46 340.27 432.55 352.92 410.64 340.27 410.64 314.96 432.55 302.31 454.46 314.96"/><polygon class="cls-3" points="499.47 314.96 499.47 340.27 477.56 352.92 455.64 340.27 455.64 314.96 477.56 302.31 499.47 314.96"/><polygon class="cls-3" points="544.47 314.94 544.47 340.25 522.56 352.9 500.64 340.25 500.64 314.94 522.56 302.29 544.47 314.94"/><polygon class="cls-3" points="521.88 199.09 521.88 224.39 499.97 237.04 478.06 224.39 478.06 199.09 499.97 186.43 521.88 199.09"/><polygon class="cls-3" points="566.89 199.09 566.89 224.39 544.98 237.04 523.07 224.39 523.07 199.09 544.98 186.43 566.89 199.09"/><polygon class="cls-3" points="589.45 160.47 589.45 185.77 567.53 198.43 545.62 185.77 545.62 160.47 567.53 147.82 589.45 160.47"/><polygon class="cls-3" points="72.8 430.64 72.8 455.94 50.88 468.6 28.97 455.94 28.97 430.64 50.88 417.99 72.8 430.64"/><polygon class="cls-3" points="161.9 353.62 161.9 378.92 139.98 391.58 118.07 378.92 118.07 353.62 139.98 340.97 161.9 353.62"/><polygon class="cls-3" points="206.9 353.62 206.9 378.92 184.99 391.58 163.08 378.92 163.08 353.62 184.99 340.97 206.9 353.62"/><polygon class="cls-3" points="251.91 353.62 251.91 378.92 230 391.58 208.09 378.92 208.09 353.62 230 340.97 251.91 353.62"/><polygon class="cls-3" points="296.92 353.62 296.92 378.92 275.01 391.58 253.09 378.92 253.09 353.62 275.01 340.97 296.92 353.62"/><polygon class="cls-2" points="298.73 378.56 298.73 353.99 320.02 341.7 341.3 353.99 341.3 378.56 320.02 390.85 298.73 378.56"/><path class="cls-2" d="M320,342.43l20.65,11.92V378.2L320,390.12,299.36,378.2V354.35L320,342.43m0-1.46L298.1,353.62v25.31L320,391.58l22-12.65V353.62L320.06,341Z"/><polygon class="cls-3" points="386.94 353.62 386.94 378.92 365.02 391.58 343.11 378.92 343.11 353.62 365.02 340.97 386.94 353.62"/><polygon class="cls-2" points="388.75 378.56 388.75 353.99 410.03 341.7 431.32 353.99 431.32 378.56 410.03 390.85 388.75 378.56"/><path class="cls-2" d="M410,342.43l20.66,11.92V378.2L410,390.12,389.38,378.2V354.35L410,342.43m0-1.46-21.91,12.65v25.31L410,391.58,432,378.93V353.62L410.05,341Z"/><polygon class="cls-3" points="476.96 353.62 476.96 378.92 455.04 391.58 433.13 378.92 433.13 353.62 455.04 340.97 476.96 353.62"/><polygon class="cls-3" points="521.96 353.62 521.96 378.92 500.05 391.58 478.14 378.92 478.14 353.62 500.05 340.97 521.96 353.62"/><polygon class="cls-2" points="186.21 417.2 186.21 392.62 207.49 380.33 228.78 392.62 228.78 417.2 207.49 429.49 186.21 417.2"/><path class="cls-2" d="M207.49,381.06,228.15,393v23.83l-20.66,11.92-20.65-11.92V393l20.65-11.93m0-1.45-21.91,12.65v25.3l21.91,12.65,21.92-12.65v-25.3Z"/><polygon class="cls-2" points="231.22 417.2 231.22 392.62 252.5 380.33 273.79 392.62 273.79 417.2 252.5 429.49 231.22 417.2"/><path class="cls-2" d="M252.5,381.06,273.16,393v23.83L252.5,428.74l-20.65-11.92V393l20.65-11.93m0-1.45-21.91,12.65v25.3l21.91,12.65,21.92-12.65v-25.3Z"/><polygon class="cls-2" points="276.23 417.2 276.23 392.62 297.51 380.33 318.79 392.62 318.79 417.2 297.51 429.49 276.23 417.2"/><path class="cls-2" d="M297.51,381.06,318.16,393v23.83l-20.65,11.92-20.65-11.92V393l20.65-11.93m0-1.45L275.6,392.26v25.3l21.91,12.65,21.91-12.65v-25.3Z"/><polygon class="cls-3" points="364.43 392.26 364.43 417.56 342.52 430.21 320.61 417.56 320.61 392.26 342.52 379.61 364.43 392.26"/><polygon class="cls-2" points="366.24 417.2 366.24 392.62 387.53 380.33 408.81 392.62 408.81 417.2 387.53 429.49 366.24 417.2"/><path class="cls-2" d="M387.53,381.06,408.18,393v23.83l-20.65,11.92-20.65-11.92V393l20.65-11.93m0-1.45-21.92,12.65v25.3l21.92,12.65,21.91-12.65v-25.3Z"/><polygon class="cls-3" points="454.45 392.26 454.45 417.56 432.54 430.21 410.62 417.56 410.62 392.26 432.54 379.61 454.45 392.26"/><polygon class="cls-3" points="296.92 430.89 296.92 456.2 275 468.85 253.09 456.2 253.09 430.89 275 418.24 296.92 430.89"/><polygon class="cls-3" points="478.02 430.64 478.02 455.94 456.11 468.6 434.2 455.94 434.2 430.64 456.11 417.99 478.02 430.64"/></g><g id="labels"><text class="cls-4" transform="translate(60.09 179.59)">AK</text><g class="cls-5"><text class="cls-6" transform="translate(103.09 256.59)">W</text><text class="cls-7" transform="translate(118.51 256.59)">A</text></g><g class="cls-5"><text class="cls-4" transform="translate(150.09 256.59)">M</text><text class="cls-8" transform="translate(164.25 256.59)">T</text></g><text class="cls-4" transform="translate(195.09 256.59)">ND</text><text class="cls-4" transform="translate(239.19 256.59)">MN</text><text class="cls-4" transform="translate(287.52 256.59)">WI</text><text class="cls-4" transform="translate(377.78 256.59)">MI</text><g class="cls-5"><text class="cls-4" transform="translate(466.22 256.59)">N</text><text class="cls-8" transform="translate(478.5 256.59)">Y</text></g><g class="cls-5"><text class="cls-4" transform="translate(510.22 256.59)">M</text><text class="cls-7" transform="translate(524.38 256.59)">A</text></g><text class="cls-4" transform="translate(558.77 256.59)">RI</text><text class="cls-4" transform="translate(131.09 295.59)">ID</text><g class="cls-5"><text class="cls-4" transform="translate(172.23 295.59)">W</text><text class="cls-8" transform="translate(188.28 295.59)">Y</text></g><text class="cls-4" transform="translate(219.04 295.59)">SD</text><g class="cls-5"><text class="cls-4" transform="translate(266.68 295.59)">I</text><text class="cls-7" transform="translate(271.4 295.59)">A</text></g><g class="cls-5"><text class="cls-4" transform="translate(313.08 295.59)">I</text><text class="cls-9" transform="translate(317.8 295.59)">L</text></g><text class="cls-4" transform="translate(356.48 295.59)">IN</text><text class="cls-4" transform="translate(397.04 295.59)">OH</text><g class="cls-5"><text class="cls-10" transform="translate(444.06 295.59)">P</text><text class="cls-7" transform="translate(454.15 295.59)">A</text></g><text class="cls-4" transform="translate(489.46 295.59)">NJ</text><g class="cls-5"><text class="cls-4" transform="translate(533.79 295.59)">C</text><text class="cls-8" transform="translate(546.07 295.59)">T</text></g><text class="cls-4" transform="translate(103.84 334.34)">OR</text><text class="cls-4" transform="translate(150.09 334.34)">NV</text><text class="cls-4" transform="translate(195.09 334.34)">CO</text><text class="cls-4" transform="translate(240.74 334.34)">NE</text><text class="cls-4" transform="translate(284.32 334.34)">MO</text><g class="cls-5"><text class="cls-4" transform="translate(330.96 334.34)">K</text><text class="cls-8" transform="translate(342.3 334.34)">Y</text></g><text class="cls-4" transform="translate(373.78 334.34)">WV</text><g class="cls-5"><text class="cls-11" transform="translate(421.03 334.34)">V</text><text class="cls-7" transform="translate(431.12 334.34)">A</text></g><text class="cls-4" transform="translate(465.13 334.34)">MD</text><text class="cls-4" transform="translate(510.22 334.34)">DE</text><g class="cls-5"><text class="cls-4" transform="translate(128.09 372.71)">C</text><text class="cls-7" transform="translate(140.37 372.71)">A</text></g><g class="cls-5"><text class="cls-4" transform="translate(173.82 372.71)">U</text><text class="cls-8" transform="translate(186.1 372.71)">T</text></g><text class="cls-4" transform="translate(217.04 372.71)">NM</text><text class="cls-4" transform="translate(263.32 372.71)">KS</text><text class="cls-4" transform="translate(308.5 372.71)">AR</text><text class="cls-4" transform="translate(353.14 372.71)">TN</text><text class="cls-4" transform="translate(398.04 372.71)">NC</text><text class="cls-4" transform="translate(443.06 372.71)">SC</text><text class="cls-4" transform="translate(488.46 372.71)">DC</text><text class="cls-4" transform="translate(41.71 449.71)">HI</text><text class="cls-4" transform="translate(196.09 410.71)">AZ</text><text class="cls-4" transform="translate(240.74 410.71)">OK</text><g class="cls-5"><text class="cls-12" transform="translate(287.32 410.71)">L</text><text class="cls-7" transform="translate(296.77 410.71)">A</text></g><text class="cls-4" transform="translate(330.72 410.71)">MS</text><g class="cls-5"><text class="cls-13" transform="translate(377.78 410.71)">A</text><text class="cls-9" transform="translate(389.12 410.71)">L</text></g><g class="cls-5"><text class="cls-4" transform="translate(420.87 410.71)">G</text><text class="cls-7" transform="translate(434.09 410.71)">A</text></g><text class="cls-4" transform="translate(263.6 450.71)">TX</text><g class="cls-5"><text class="cls-4" transform="translate(446.52 450.71)">F</text><text class="cls-9" transform="translate(456.9 450.71)">L</text></g><g class="cls-5"><text class="cls-4" transform="translate(488.46 219.36)">V</text><text class="cls-8" transform="translate(499.8 219.36)">T</text></g><text class="cls-4" transform="translate(533.79 219.36)">NH</text><text class="cls-4" transform="translate(555.35 179.59)">ME</text></g></g></g></g></svg>