<svg xmlns="http://www.w3.org/2000/svg" viewBox="0 0 617.66 617.66"><defs><style>.cls-1{fill:#fff1ce;stroke:#000;stroke-miterlimit:10;}.cls-2{fill:#e0dada;}.cls-3{fill:#dcdcdc;}.cls-4{fill:#fd9f8b;}.cls-10,.cls-5,.cls-6{font-size:17px;fill:#fff;font-family:Helvetica, Helvetica;}.cls-6,.cls-9{letter-spacing:-0.04em;}.cls-7{letter-spacing:-0.05em;}.cls-8{letter-spacing:-0.02em;}.cls-10{letter-spacing:-0.07em;}</style></defs><title>Asset 3</title><g id="Layer_2" data-name="Layer 2"><g id="labels"><rect class="cls-1" x="0.5" y="0.5" width="616.66" height="616.66"/><polygon class="cls-2" points="50.81 186.16 50.81 161.59 72.09 149.3 93.37 161.59 93.37 186.16 72.09 198.45 50.81 186.16"/><path class="cls-3" d="M72.09,150,92.74,162V185.8L72.09,197.72,51.44,185.8V162L72.09,150m0-1.46L50.18,161.22v25.31l21.91,12.65L94,186.53V161.22L72.09,148.57Z"/><polygon class="cls-2" points="139 238.22 139 263.52 117.09 276.18 95.18 263.52 95.18 238.22 117.09 225.57 139 238.22"/><polygon class="cls-2" points="140.81 263.16 140.81 238.59 162.09 226.3 183.37 238.59 183.37 263.16 162.09 275.45 140.81 263.16"/><path class="cls-3" d="M162.09,227,182.74,239V262.8l-20.65,11.92L141.44,262.8V239L162.09,227m0-1.46-21.91,12.65v25.31l21.91,12.65L184,263.53V238.22l-21.91-12.65Z"/><polygon class="cls-2" points="229 238.22 229 263.52 207.09 276.18 185.18 263.52 185.18 238.22 207.09 225.57 229 238.22"/><polygon class="cls-2" points="230.81 263.16 230.81 238.59 252.09 226.3 273.37 238.59 273.37 263.16 252.09 275.45 230.81 263.16"/><path class="cls-3" d="M252.09,227,272.74,239V262.8l-20.65,11.92L231.44,262.8V239L252.09,227m0-1.46-21.91,12.65v25.31l21.91,12.65L274,263.53V238.22l-21.91-12.65Z"/><polygon class="cls-2" points="319 238.22 319 263.52 297.09 276.18 275.18 263.52 275.18 238.22 297.09 225.57 319 238.22"/><polygon class="cls-2" points="161.51 276.83 161.51 302.13 139.59 314.79 117.68 302.13 117.68 276.83 139.59 264.18 161.51 276.83"/><polygon class="cls-2" points="163.32 301.77 163.32 277.19 184.6 264.91 205.89 277.19 205.89 301.77 184.6 314.06 163.32 301.77"/><path class="cls-3" d="M184.6,265.64l20.66,11.92v23.85L184.6,313.33,164,301.41V277.56l20.65-11.92m0-1.46-21.91,12.65v25.3l21.91,12.66,21.92-12.66v-25.3L184.6,264.18Z"/><polygon class="cls-2" points="251.52 276.83 251.52 302.13 229.61 314.79 207.7 302.13 207.7 276.83 229.61 264.18 251.52 276.83"/><polygon class="cls-2" points="296.53 276.83 296.53 302.13 274.62 314.79 252.71 302.13 252.71 276.83 274.62 264.18 296.53 276.83"/><polygon class="cls-4" points="341.54 276.83 341.54 302.13 319.63 314.79 297.71 302.13 297.71 276.83 319.63 264.18 341.54 276.83"/><polygon class="cls-2" points="386.55 276.83 386.55 302.13 364.64 314.79 342.72 302.13 342.72 276.83 364.64 264.18 386.55 276.83"/><polygon class="cls-2" points="431.56 276.83 431.56 302.13 409.64 314.79 387.73 302.13 387.73 276.83 409.64 264.18 431.56 276.83"/><polygon class="cls-2" points="476.57 276.83 476.57 302.13 454.65 314.79 432.74 302.13 432.74 276.83 454.65 264.18 476.57 276.83"/><polygon class="cls-4" points="521.58 276.83 521.58 302.13 499.66 314.79 477.75 302.13 477.75 276.83 499.66 264.18 521.58 276.83"/><polygon class="cls-2" points="566.58 276.83 566.58 302.13 544.67 314.79 522.76 302.13 522.76 276.83 544.67 264.18 566.58 276.83"/><polygon class="cls-2" points="409 238.21 409 263.52 387.08 276.17 365.17 263.52 365.17 238.21 387.08 225.56 409 238.21"/><polygon class="cls-2" points="455.82 263.14 455.82 238.57 477.11 226.28 498.39 238.57 498.39 263.14 477.11 275.43 455.82 263.14"/><path class="cls-3" d="M477.11,227l20.65,11.92v23.85L477.11,274.7l-20.66-11.92V238.93L477.11,227m0-1.46L455.19,238.2v25.31l21.92,12.65L499,263.51V238.2l-21.91-12.65Z"/><polygon class="cls-2" points="544.03 238.2 544.03 263.5 522.12 276.16 500.2 263.5 500.2 238.2 522.12 225.55 544.03 238.2"/><polygon class="cls-2" points="589.04 238.2 589.04 263.5 567.12 276.16 545.21 263.5 545.21 238.2 567.12 225.55 589.04 238.2"/><polygon class="cls-4" points="139.02 315.46 139.02 340.76 117.11 353.42 95.2 340.76 95.2 315.46 117.11 302.81 139.02 315.46"/><polygon class="cls-2" points="140.84 340.4 140.84 315.82 162.12 303.54 183.4 315.82 183.4 340.4 162.12 352.69 140.84 340.4"/><path class="cls-3" d="M162.12,304.26l20.65,11.93V340L162.12,352,141.47,340V316.19l20.65-11.93m0-1.45-21.91,12.65v25.3l21.91,12.65L184,340.76v-25.3l-21.91-12.65Z"/><polygon class="cls-4" points="229.04 315.46 229.04 340.76 207.13 353.42 185.21 340.76 185.21 315.46 207.13 302.81 229.04 315.46"/><polygon class="cls-2" points="274.05 315.46 274.05 340.76 252.14 353.42 230.22 340.76 230.22 315.46 252.14 302.81 274.05 315.46"/><polygon class="cls-2" points="319.06 315.46 319.06 340.76 297.14 353.42 275.23 340.76 275.23 315.46 297.14 302.81 319.06 315.46"/><polygon class="cls-2" points="364.07 315.46 364.07 340.76 342.15 353.42 320.24 340.76 320.24 315.46 342.15 302.81 364.07 315.46"/><polygon class="cls-2" points="409.08 315.46 409.08 340.76 387.16 353.42 365.25 340.76 365.25 315.46 387.16 302.81 409.08 315.46"/><polygon class="cls-2" points="454.08 315.46 454.08 340.76 432.17 353.42 410.26 340.76 410.26 315.46 432.17 302.81 454.08 315.46"/><polygon class="cls-4" points="499.09 315.46 499.09 340.76 477.18 353.42 455.27 340.76 455.27 315.46 477.18 302.81 499.09 315.46"/><polygon class="cls-4" points="544.09 315.44 544.09 340.74 522.18 353.39 500.27 340.74 500.27 315.44 522.18 302.79 544.09 315.44"/><polygon class="cls-2" points="521.51 199.58 521.51 224.88 499.59 237.54 477.68 224.88 477.68 199.58 499.59 186.93 521.51 199.58"/><polygon class="cls-2" points="566.51 199.58 566.51 224.88 544.6 237.54 522.69 224.88 522.69 199.58 544.6 186.93 566.51 199.58"/><polygon class="cls-2" points="589.07 160.97 589.07 186.27 567.15 198.92 545.24 186.27 545.24 160.97 567.15 148.31 589.07 160.97"/><polygon class="cls-2" points="72.42 431.14 72.42 456.44 50.51 469.09 28.59 456.44 28.59 431.14 50.51 418.48 72.42 431.14"/><polygon class="cls-4" points="161.52 354.12 161.52 379.42 139.6 392.07 117.69 379.42 117.69 354.12 139.6 341.47 161.52 354.12"/><polygon class="cls-2" points="206.53 354.12 206.53 379.42 184.61 392.07 162.7 379.42 162.7 354.12 184.61 341.47 206.53 354.12"/><polygon class="cls-2" points="251.53 354.12 251.53 379.42 229.62 392.07 207.71 379.42 207.71 354.12 229.62 341.47 251.53 354.12"/><polygon class="cls-2" points="253.35 379.06 253.35 354.48 274.63 342.19 295.91 354.48 295.91 379.06 274.63 391.35 253.35 379.06"/><path class="cls-3" d="M274.63,342.92l20.65,11.93v23.84l-20.65,11.93L254,378.69V354.85l20.65-11.93m0-1.45-21.91,12.65v25.3l21.91,12.65,21.91-12.65v-25.3l-21.91-12.65Z"/><polygon class="cls-2" points="341.55 354.12 341.55 379.42 319.64 392.07 297.73 379.42 297.73 354.12 319.64 341.47 341.55 354.12"/><polygon class="cls-2" points="386.56 354.12 386.56 379.42 364.65 392.07 342.73 379.42 342.73 354.12 364.65 341.47 386.56 354.12"/><polygon class="cls-2" points="431.57 354.12 431.57 379.42 409.65 392.07 387.74 379.42 387.74 354.12 409.65 341.47 431.57 354.12"/><polygon class="cls-4" points="476.58 354.12 476.58 379.42 454.66 392.07 432.75 379.42 432.75 354.12 454.66 341.47 476.58 354.12"/><polygon class="cls-4" points="521.59 354.12 521.59 379.42 499.67 392.07 477.76 379.42 477.76 354.12 499.67 341.47 521.59 354.12"/><polygon class="cls-2" points="229.03 392.75 229.03 418.06 207.12 430.71 185.2 418.06 185.2 392.75 207.12 380.1 229.03 392.75"/><polygon class="cls-2" points="274.04 392.75 274.04 418.06 252.13 430.71 230.21 418.06 230.21 392.75 252.13 380.1 274.04 392.75"/><polygon class="cls-2" points="319.05 392.75 319.05 418.06 297.13 430.71 275.22 418.06 275.22 392.75 297.13 380.1 319.05 392.75"/><polygon class="cls-2" points="364.06 392.75 364.06 418.06 342.14 430.71 320.23 418.06 320.23 392.75 342.14 380.1 364.06 392.75"/><polygon class="cls-2" points="409.06 392.75 409.06 418.06 387.15 430.71 365.24 418.06 365.24 392.75 387.15 380.1 409.06 392.75"/><polygon class="cls-2" points="454.07 392.75 454.07 418.06 432.16 430.71 410.25 418.06 410.25 392.75 432.16 380.1 454.07 392.75"/><polygon class="cls-2" points="296.54 431.39 296.54 456.69 274.63 469.35 252.71 456.69 252.71 431.39 274.63 418.74 296.54 431.39"/><polygon class="cls-2" points="477.65 431.14 477.65 456.44 455.73 469.09 433.82 456.44 433.82 431.14 455.73 418.48 477.65 431.14"/><text class="cls-5" transform="translate(59.71 180.08)">AK</text><text class="cls-6" transform="translate(102.71 257.08)">W<tspan class="cls-7" x="15.42" y="0">A</tspan></text><text class="cls-5" transform="translate(149.71 257.08)">M<tspan class="cls-8" x="14.16" y="0">T</tspan></text><text class="cls-5" transform="translate(194.71 257.08)">ND</text><text class="cls-5" transform="translate(238.81 257.08)">MN</text><text class="cls-5" transform="translate(287.15 257.08)">WI</text><text class="cls-5" transform="translate(377.4 257.08)">MI</text><text class="cls-5" transform="translate(465.84 257.08)">N<tspan class="cls-8" x="12.28" y="0">Y</tspan></text><text class="cls-5" transform="translate(509.84 257.08)">M<tspan class="cls-7" x="14.16" y="0">A</tspan></text><text class="cls-5" transform="translate(558.39 257.08)">RI</text><text class="cls-5" transform="translate(130.71 296.08)">ID</text><text class="cls-5" transform="translate(171.85 296.08)">W<tspan class="cls-8" x="16.05" y="0">Y</tspan></text><text class="cls-5" transform="translate(218.67 296.08)">SD</text><text class="cls-5" transform="translate(266.31 296.08)">I<tspan class="cls-7" x="4.72" y="0">A</tspan></text><text class="cls-5" transform="translate(312.7 296.08)">I<tspan class="cls-9" x="4.72" y="0">L</tspan></text><text class="cls-5" transform="translate(356.1 296.08)">IN</text><text class="cls-5" transform="translate(396.66 296.08)">OH</text><text class="cls-10" transform="translate(443.68 296.08)">P<tspan class="cls-7" x="10.09" y="0">A</tspan></text><text class="cls-5" transform="translate(489.09 296.08)">NJ</text><text class="cls-5" transform="translate(533.41 296.08)">C<tspan class="cls-8" x="12.28" y="0">T</tspan></text><text class="cls-5" transform="translate(103.47 334.84)">OR</text><text class="cls-5" transform="translate(149.71 334.84)">NV</text><text class="cls-5" transform="translate(194.71 334.84)">CO</text><text class="cls-5" transform="translate(240.36 334.84)">NE</text><text class="cls-5" transform="translate(283.94 334.84)">MO</text><text class="cls-5" transform="translate(330.58 334.84)">K<tspan class="cls-8" x="11.34" y="0">Y</tspan></text><text class="cls-5" transform="translate(373.4 334.84)">WV</text><text class="cls-10" transform="translate(420.65 334.84)">V<tspan class="cls-7" x="10.09" y="0">A</tspan></text><text class="cls-5" transform="translate(464.75 334.84)">MD</text><text class="cls-5" transform="translate(509.84 334.84)">DE</text><text class="cls-5" transform="translate(127.71 373.2)">C<tspan class="cls-7" x="12.28" y="0">A</tspan></text><text class="cls-5" transform="translate(173.44 373.2)">U<tspan class="cls-8" x="12.28" y="0">T</tspan></text><text class="cls-5" transform="translate(216.67 373.2)">NM</text><text class="cls-5" transform="translate(262.94 373.2)">KS</text><text class="cls-5" transform="translate(308.13 373.2)">AR</text><text class="cls-5" transform="translate(352.76 373.2)">TN</text><text class="cls-5" transform="translate(397.66 373.2)">NC</text><text class="cls-5" transform="translate(442.68 373.2)">SC</text><text class="cls-5" transform="translate(488.09 373.2)">DC</text><text class="cls-5" transform="translate(41.33 450.2)">HI</text><text class="cls-5" transform="translate(195.71 411.2)">AZ</text><text class="cls-5" transform="translate(240.36 411.2)">OK</text><text class="cls-5" transform="translate(286.94 411.2)">L<tspan class="cls-7" x="9.45" y="0">A</tspan></text><text class="cls-5" transform="translate(330.34 411.2)">MS</text><text class="cls-5" transform="translate(377.4 411.2)">A<tspan class="cls-9" x="11.34" y="0">L</tspan></text><text class="cls-5" transform="translate(420.5 411.2)">G<tspan class="cls-7" x="13.22" y="0">A</tspan></text><text class="cls-5" transform="translate(263.23 451.2)">TX</text><text class="cls-5" transform="translate(446.15 451.2)">F<tspan class="cls-9" x="10.38" y="0">L</tspan></text><text class="cls-5" transform="translate(488.09 219.85)">V<tspan class="cls-8" x="11.34" y="0">T</tspan></text><text class="cls-5" transform="translate(533.41 219.85)">NH</text><text class="cls-5" transform="translate(554.97 180.08)">ME</text></g></g></svg>