<svg xmlns="http://www.w3.org/2000/svg" viewBox="0 0 617.66 617.66"><defs><style>.cls-1{fill:#fff2cf;stroke:#010101;stroke-miterlimit:10;}.cls-2{fill:#e0dbda;}.cls-3{fill:#dcdcdc;}.cls-4{fill:#ed7139;}.cls-10,.cls-11,.cls-12,.cls-13,.cls-14,.cls-5,.cls-6,.cls-7,.cls-8,.cls-9{isolation:isolate;}.cls-10,.cls-11,.cls-12,.cls-13,.cls-14,.cls-5,.cls-7,.cls-8,.cls-9{font-size:17px;fill:#fff;font-family:Helvetica, Helvetica;}.cls-7{letter-spacing:-0.04em;}.cls-8{letter-spacing:-0.1em;}.cls-9{letter-spacing:-0.04em;}.cls-10{letter-spacing:-0.08em;}.cls-11{letter-spacing:-0.09em;}.cls-12{letter-spacing:-0.07em;}.cls-13{letter-spacing:-0.04em;}.cls-14{letter-spacing:-0.05em;}</style></defs><title>Asset 1</title><g id="Layer_2" data-name="Layer 2"><g id="Layer_1-2" data-name="Layer 1"><rect class="cls-1" x="0.5" y="0.5" width="616.66" height="616.66"/><g id="Layer_2-2" data-name="Layer 2"><g id="hexagons"><polygon class="cls-2" points="50.8 186.17 50.8 161.59 72.09 149.3 93.37 161.59 93.37 186.17 72.09 198.45 50.8 186.17"/><path class="cls-3" d="M72.09,150,92.74,162V185.8L72.09,197.73,51.43,185.8V162L72.09,150m0-1.46L50.17,161.23v25.3l21.92,12.65L94,186.53v-25.3Z"/><polygon class="cls-4" points="139 238.23 139 263.53 117.09 276.18 95.17 263.53 95.17 238.23 117.09 225.57 139 238.23"/><polygon class="cls-2" points="140.8 263.17 140.8 238.59 162.09 226.3 183.37 238.59 183.37 263.17 162.09 275.45 140.8 263.17"/><path class="cls-3" d="M162.09,227,182.74,239V262.8l-20.65,11.93L141.43,262.8V239L162.09,227m0-1.46-21.92,12.66v25.3l21.92,12.65L184,263.53v-25.3Z"/><polygon class="cls-4" points="229 238.23 229 263.53 207.09 276.18 185.17 263.53 185.17 238.23 207.09 225.57 229 238.23"/><polygon class="cls-2" points="230.8 263.17 230.8 238.59 252.09 226.3 273.37 238.59 273.37 263.17 252.09 275.45 230.8 263.17"/><path class="cls-3" d="M252.09,227,272.74,239V262.8l-20.65,11.93L231.43,262.8V239L252.09,227m0-1.46-21.92,12.66v25.3l21.92,12.65L274,263.53v-25.3Z"/><polygon class="cls-4" points="319 238.23 319 263.53 297.09 276.18 275.17 263.53 275.17 238.23 297.09 225.57 319 238.23"/><polygon class="cls-4" points="161.5 276.84 161.5 302.14 139.59 314.79 117.68 302.14 117.68 276.84 139.59 264.18 161.5 276.84"/><polygon class="cls-2" points="163.32 301.78 163.32 277.2 184.6 264.91 205.88 277.2 205.88 301.78 184.6 314.06 163.32 301.78"/><path class="cls-3" d="M184.59,265.64l20.65,11.92v23.85l-20.65,11.91-20.65-11.93V277.56l20.65-11.92m0-1.46-21.9,12.66v25.3l21.9,12.65,21.91-12.65v-25.3Z"/><polygon class="cls-4" points="251.52 276.84 251.52 302.14 229.61 314.79 207.69 302.14 207.69 276.84 229.61 264.18 251.52 276.84"/><polygon class="cls-2" points="296.53 276.84 296.53 302.14 274.62 314.79 252.7 302.14 252.7 276.84 274.62 264.18 296.53 276.84"/><polygon class="cls-4" points="341.54 276.84 341.54 302.14 319.63 314.79 297.71 302.14 297.71 276.84 319.63 264.18 341.54 276.84"/><polygon class="cls-4" points="386.55 276.84 386.55 302.14 364.63 314.79 342.72 302.14 342.72 276.84 364.63 264.18 386.55 276.84"/><polygon class="cls-4" points="431.56 276.84 431.56 302.14 409.64 314.79 387.73 302.14 387.73 276.84 409.64 264.18 431.56 276.84"/><polygon class="cls-2" points="433.37 301.78 433.37 277.2 454.65 264.91 475.93 277.2 475.93 301.78 454.65 314.06 433.37 301.78"/><path class="cls-3" d="M454.65,265.64l20.65,11.92v23.85l-20.65,11.91L434,301.39V277.56l20.65-11.92m0-1.46-21.91,12.66v25.3l21.91,12.65,21.94-12.65v-25.3l-21.91-12.66Z"/><polygon class="cls-4" points="521.57 276.84 521.57 302.14 499.66 314.79 477.75 302.14 477.75 276.84 499.66 264.18 521.57 276.84"/><polygon class="cls-4" points="566.58 276.84 566.58 302.14 544.67 314.79 522.76 302.14 522.76 276.84 544.67 264.18 566.58 276.84"/><polygon class="cls-4" points="408.99 238.22 408.99 263.52 387.08 276.17 365.17 263.52 365.17 238.22 387.08 225.57 408.99 238.22"/><polygon class="cls-2" points="455.82 263.15 455.82 238.57 477.1 226.28 498.39 238.57 498.39 263.15 477.1 275.43 455.82 263.15"/><path class="cls-3" d="M477.1,227l20.66,11.92v23.85L477.1,274.71l-20.65-11.93V238.93L477.1,227m0-1.46-21.91,12.66v25.3l21.91,12.65L499,263.51v-25.3Z"/><polygon class="cls-2" points="500.83 263.15 500.83 238.57 522.11 226.28 543.39 238.57 543.39 263.15 522.11 275.43 500.83 263.15"/><path class="cls-3" d="M522.11,227l20.65,11.92v23.85l-20.65,11.93-20.65-11.93V238.93L522.11,227m0-1.46L500.2,238.21v25.3l21.91,12.65L544,263.51v-25.3Z"/><polygon class="cls-4" points="589.03 238.21 589.03 263.51 567.12 276.16 545.21 263.51 545.21 238.21 567.12 225.55 589.03 238.21"/><polygon class="cls-4" points="139.02 315.46 139.02 340.77 117.11 353.42 95.2 340.77 95.2 315.46 117.11 302.81 139.02 315.46"/><polygon class="cls-2" points="140.83 340.4 140.83 315.83 162.12 303.54 183.4 315.83 183.4 340.4 162.12 352.69 140.83 340.4"/><path class="cls-3" d="M162.12,304.32l20.65,11.92v23.85L162.12,352l-20.66-11.92v-23.9l20.66-11.87m0-1.46L140.2,315.51v25.31l21.92,12.65L184,340.82V315.46l-21.91-12.65Z"/><polygon class="cls-4" points="229.04 315.46 229.04 340.77 207.12 353.42 185.21 340.77 185.21 315.46 207.12 302.81 229.04 315.46"/><polygon class="cls-2" points="230.85 340.4 230.85 315.83 252.13 303.54 273.42 315.83 273.42 340.4 252.13 352.69 230.85 340.4"/><path class="cls-3" d="M252.13,304.32l20.66,11.92v23.85L252.13,352l-20.65-11.92v-23.9l20.65-11.87m0-1.46-21.91,12.65v25.31l21.91,12.65,21.92-12.65V315.46l-21.92-12.65Z"/><polygon class="cls-4" points="319.06 315.46 319.06 340.77 297.14 353.42 275.23 340.77 275.23 315.46 297.14 302.81 319.06 315.46"/><polygon class="cls-4" points="364.06 315.46 364.06 340.77 342.15 353.42 320.24 340.77 320.24 315.46 342.15 302.81 364.06 315.46"/><polygon class="cls-4" points="409.07 315.46 409.07 340.77 387.16 353.42 365.25 340.77 365.25 315.46 387.16 302.81 409.07 315.46"/><polygon class="cls-4" points="454.08 315.46 454.08 340.77 432.17 353.42 410.26 340.77 410.26 315.46 432.17 302.81 454.08 315.46"/><polygon class="cls-4" points="499.09 315.46 499.09 340.77 477.18 353.42 455.26 340.77 455.26 315.46 477.18 302.81 499.09 315.46"/><polygon class="cls-4" points="544.09 315.44 544.09 340.75 522.18 353.4 500.26 340.75 500.26 315.44 522.18 302.79 544.09 315.44"/><polygon class="cls-4" points="521.5 199.59 521.5 224.89 499.59 237.54 477.68 224.89 477.68 199.59 499.59 186.93 521.5 199.59"/><polygon class="cls-4" points="566.51 199.59 566.51 224.89 544.6 237.54 522.69 224.89 522.69 199.59 544.6 186.93 566.51 199.59"/><polygon class="cls-4" points="589.07 160.97 589.07 186.27 567.15 198.93 545.24 186.27 545.24 160.97 567.15 148.32 589.07 160.97"/><polygon class="cls-4" points="72.42 431.14 72.42 456.44 50.5 469.1 28.59 456.44 28.59 431.14 50.5 418.49 72.42 431.14"/><polygon class="cls-4" points="161.52 354.12 161.52 379.42 139.6 392.08 117.69 379.42 117.69 354.12 139.6 341.47 161.52 354.12"/><polygon class="cls-4" points="206.52 354.12 206.52 379.42 184.61 392.08 162.7 379.42 162.7 354.12 184.61 341.47 206.52 354.12"/><polygon class="cls-4" points="251.53 354.12 251.53 379.42 229.62 392.08 207.71 379.42 207.71 354.12 229.62 341.47 251.53 354.12"/><polygon class="cls-2" points="253.34 379.06 253.34 354.49 274.63 342.2 295.91 354.49 295.91 379.06 274.63 391.35 253.34 379.06"/><path class="cls-3" d="M274.59,342.93l20.65,11.92V378.7l-20.65,11.92L253.93,378.7V354.85l20.66-11.92m0-1.46-21.88,12.65v25.31l21.88,12.65,22-12.65V354.12Z"/><polygon class="cls-4" points="341.55 354.12 341.55 379.42 319.64 392.08 297.72 379.42 297.72 354.12 319.64 341.47 341.55 354.12"/><polygon class="cls-4" points="386.56 354.12 386.56 379.42 364.64 392.08 342.73 379.42 342.73 354.12 364.64 341.47 386.56 354.12"/><polygon class="cls-4" points="431.57 354.12 431.57 379.42 409.65 392.08 387.74 379.42 387.74 354.12 409.65 341.47 431.57 354.12"/><polygon class="cls-4" points="476.58 354.12 476.58 379.42 454.66 392.08 432.75 379.42 432.75 354.12 454.66 341.47 476.58 354.12"/><polygon class="cls-4" points="521.58 354.12 521.58 379.42 499.67 392.08 477.76 379.42 477.76 354.12 499.67 341.47 521.58 354.12"/><polygon class="cls-4" points="229.03 392.76 229.03 418.06 207.11 430.71 185.2 418.06 185.2 392.76 207.11 380.11 229.03 392.76"/><polygon class="cls-4" points="274.04 392.76 274.04 418.06 252.12 430.71 230.21 418.06 230.21 392.76 252.12 380.11 274.04 392.76"/><polygon class="cls-4" points="319.04 392.76 319.04 418.06 297.13 430.71 275.22 418.06 275.22 392.76 297.13 380.11 319.04 392.76"/><polygon class="cls-4" points="364.05 392.76 364.05 418.06 342.14 430.71 320.23 418.06 320.23 392.76 342.14 380.11 364.05 392.76"/><polygon class="cls-4" points="409.06 392.76 409.06 418.06 387.15 430.71 365.23 418.06 365.23 392.76 387.15 380.11 409.06 392.76"/><polygon class="cls-4" points="454.07 392.76 454.07 418.06 432.16 430.71 410.24 418.06 410.24 392.76 432.16 380.11 454.07 392.76"/><polygon class="cls-4" points="296.54 431.39 296.54 456.7 274.62 469.35 252.71 456.7 252.71 431.39 274.62 418.74 296.54 431.39"/><polygon class="cls-4" points="477.64 431.14 477.64 456.44 455.73 469.1 433.82 456.44 433.82 431.14 455.73 418.49 477.64 431.14"/></g><g id="labels"><text class="cls-5" transform="translate(59.71 180.09)">AK</text><g class="cls-6"><text class="cls-7" transform="translate(102.71 257.09)">W</text><text class="cls-8" transform="translate(118.13 257.09)">A</text></g><g class="cls-6"><text class="cls-5" transform="translate(149.71 257.09)">M</text><text class="cls-9" transform="translate(163.87 257.09)">T</text></g><text class="cls-5" transform="translate(194.71 257.09)">ND</text><text class="cls-5" transform="translate(238.81 257.09)">MN</text><text class="cls-5" transform="translate(287.14 257.09)">WI</text><text class="cls-5" transform="translate(377.4 257.09)">MI</text><g class="cls-6"><text class="cls-5" transform="translate(465.84 257.09)">N</text><text class="cls-9" transform="translate(478.12 257.09)">Y</text></g><g class="cls-6"><text class="cls-5" transform="translate(509.84 257.09)">M</text><text class="cls-8" transform="translate(524 257.09)">A</text></g><text class="cls-5" transform="translate(558.39 257.09)">RI</text><text class="cls-5" transform="translate(130.71 296.09)">ID</text><g class="cls-6"><text class="cls-5" transform="translate(171.85 296.09)">W</text><text class="cls-9" transform="translate(187.9 296.09)">Y</text></g><text class="cls-5" transform="translate(218.66 296.09)">SD</text><g class="cls-6"><text class="cls-5" transform="translate(266.3 296.09)">I</text><text class="cls-8" transform="translate(271.02 296.09)">A</text></g><g class="cls-6"><text class="cls-5" transform="translate(312.7 296.09)">I</text><text class="cls-10" transform="translate(317.42 296.09)">L</text></g><text class="cls-5" transform="translate(356.1 296.09)">IN</text><text class="cls-5" transform="translate(396.66 296.09)">OH</text><g class="cls-6"><text class="cls-11" transform="translate(443.68 296.09)">P</text><text class="cls-8" transform="translate(453.77 296.09)">A</text></g><text class="cls-5" transform="translate(489.08 296.09)">NJ</text><g class="cls-6"><text class="cls-5" transform="translate(533.41 296.09)">C</text><text class="cls-9" transform="translate(545.69 296.09)">T</text></g><text class="cls-5" transform="translate(103.46 334.84)">OR</text><text class="cls-5" transform="translate(149.71 334.84)">NV</text><text class="cls-5" transform="translate(194.71 334.84)">CO</text><text class="cls-5" transform="translate(240.36 334.84)">NE</text><text class="cls-5" transform="translate(283.94 334.84)">MO</text><g class="cls-6"><text class="cls-5" transform="translate(330.58 334.84)">K</text><text class="cls-9" transform="translate(341.92 334.84)">Y</text></g><text class="cls-5" transform="translate(373.4 334.84)">WV</text><g class="cls-6"><text class="cls-12" transform="translate(420.65 334.84)">V</text><text class="cls-8" transform="translate(430.74 334.84)">A</text></g><text class="cls-5" transform="translate(464.75 334.84)">MD</text><text class="cls-5" transform="translate(509.84 334.84)">DE</text><g class="cls-6"><text class="cls-5" transform="translate(127.71 373.21)">C</text><text class="cls-8" transform="translate(139.99 373.21)">A</text></g><g class="cls-6"><text class="cls-5" transform="translate(173.44 373.21)">U</text><text class="cls-9" transform="translate(185.72 373.21)">T</text></g><text class="cls-5" transform="translate(216.66 373.21)">NM</text><text class="cls-5" transform="translate(262.94 373.21)">KS</text><text class="cls-5" transform="translate(308.12 373.21)">AR</text><text class="cls-5" transform="translate(352.76 373.21)">TN</text><text class="cls-5" transform="translate(397.66 373.21)">NC</text><text class="cls-5" transform="translate(442.68 373.21)">SC</text><text class="cls-5" transform="translate(488.08 373.21)">DC</text><text class="cls-5" transform="translate(41.33 450.21)">HI</text><text class="cls-5" transform="translate(195.71 411.21)">AZ</text><text class="cls-5" transform="translate(240.36 411.21)">OK</text><g class="cls-6"><text class="cls-13" transform="translate(286.94 411.21)">L</text><text class="cls-8" transform="translate(296.39 411.21)">A</text></g><text class="cls-5" transform="translate(330.34 411.21)">MS</text><g class="cls-6"><text class="cls-14" transform="translate(377.4 411.21)">A</text><text class="cls-10" transform="translate(388.74 411.21)">L</text></g><g class="cls-6"><text class="cls-5" transform="translate(420.49 411.21)">G</text><text class="cls-8" transform="translate(433.71 411.21)">A</text></g><text class="cls-5" transform="translate(263.22 451.21)">TX</text><g class="cls-6"><text class="cls-5" transform="translate(446.14 451.21)">F</text><text class="cls-10" transform="translate(456.52 451.21)">L</text></g><g class="cls-6"><text class="cls-5" transform="translate(488.08 219.86)">V</text><text class="cls-9" transform="translate(499.42 219.86)">T</text></g><text class="cls-5" transform="translate(533.41 219.86)">NH</text><text class="cls-5" transform="translate(554.97 180.09)">ME</text></g></g></g></g></svg>