<svg xmlns="http://www.w3.org/2000/svg" viewBox="0 0 617.66 617.66"><defs><style>.cls-1{fill:#fff2cf;stroke:#010101;stroke-miterlimit:10;}.cls-2{fill:#e0dbda;}.cls-3{fill:#dcdcdc;}.cls-4{fill:#63abb0;}.cls-10,.cls-11,.cls-12,.cls-13,.cls-14,.cls-5,.cls-6,.cls-7,.cls-8,.cls-9{isolation:isolate;}.cls-10,.cls-11,.cls-12,.cls-13,.cls-14,.cls-5,.cls-7,.cls-8,.cls-9{font-size:17px;fill:#fff;font-family:Helvetica, Helvetica;}.cls-7{letter-spacing:-0.04em;}.cls-8{letter-spacing:-0.1em;}.cls-9{letter-spacing:-0.04em;}.cls-10{letter-spacing:-0.08em;}.cls-11{letter-spacing:-0.09em;}.cls-12{letter-spacing:-0.07em;}.cls-13{letter-spacing:-0.04em;}.cls-14{letter-spacing:-0.05em;}</style></defs><title>Asset 8</title><g id="Layer_2" data-name="Layer 2"><g id="Layer_1-2" data-name="Layer 1"><rect class="cls-1" x="0.5" y="0.5" width="616.66" height="616.66"/><g id="Layer_2-2" data-name="Layer 2"><g id="hexagons"><polygon class="cls-2" points="51.18 185.67 51.18 161.09 72.47 148.8 93.75 161.09 93.75 185.67 72.47 197.95 51.18 185.67"/><path class="cls-3" d="M72.47,149.53l20.65,11.92V185.3L72.47,197.23,51.81,185.3V161.45l20.66-11.92m0-1.46L50.55,160.73V186l21.92,12.65L94.38,186v-25.3Z"/><polygon class="cls-4" points="139.38 237.73 139.38 263.03 117.47 275.68 95.55 263.03 95.55 237.73 117.47 225.07 139.38 237.73"/><polygon class="cls-2" points="141.18 262.67 141.18 238.09 162.47 225.8 183.75 238.09 183.75 262.67 162.47 274.95 141.18 262.67"/><path class="cls-3" d="M162.47,226.53l20.65,11.92V262.3l-20.65,11.93L141.81,262.3V238.45l20.66-11.92m0-1.46-21.92,12.66V263l21.92,12.65L184.38,263v-25.3Z"/><polygon class="cls-2" points="229.38 237.73 229.38 263.03 207.47 275.68 185.55 263.03 185.55 237.73 207.47 225.07 229.38 237.73"/><polygon class="cls-2" points="231.18 262.67 231.18 238.09 252.47 225.8 273.75 238.09 273.75 262.67 252.47 274.95 231.18 262.67"/><path class="cls-3" d="M252.47,226.53l20.65,11.92V262.3l-20.65,11.93L231.81,262.3V238.45l20.66-11.92m0-1.46-21.92,12.66V263l21.92,12.65L274.38,263v-25.3Z"/><polygon class="cls-4" points="319.38 237.73 319.38 263.03 297.47 275.68 275.55 263.03 275.55 237.73 297.47 225.07 319.38 237.73"/><polygon class="cls-4" points="161.88 276.34 161.88 301.64 139.97 314.29 118.06 301.64 118.06 276.34 139.97 263.68 161.88 276.34"/><polygon class="cls-2" points="163.7 301.28 163.7 276.7 184.98 264.41 206.26 276.7 206.26 301.28 184.98 313.56 163.7 301.28"/><path class="cls-3" d="M185,265.14l20.65,11.92v23.85L185,312.82l-20.65-11.93V277.06L185,265.14m0-1.46-21.9,12.66v25.3L185,314.29l21.91-12.65v-25.3Z"/><polygon class="cls-2" points="251.9 276.34 251.9 301.64 229.99 314.29 208.07 301.64 208.07 276.34 229.99 263.68 251.9 276.34"/><polygon class="cls-2" points="296.91 276.34 296.91 301.64 275 314.29 253.08 301.64 253.08 276.34 275 263.68 296.91 276.34"/><polygon class="cls-4" points="341.92 276.34 341.92 301.64 320.01 314.29 298.09 301.64 298.09 276.34 320.01 263.68 341.92 276.34"/><polygon class="cls-4" points="386.93 276.34 386.93 301.64 365.01 314.29 343.1 301.64 343.1 276.34 365.01 263.68 386.93 276.34"/><polygon class="cls-4" points="431.94 276.34 431.94 301.64 410.02 314.29 388.11 301.64 388.11 276.34 410.02 263.68 431.94 276.34"/><polygon class="cls-2" points="433.75 301.28 433.75 276.7 455.03 264.41 476.31 276.7 476.31 301.28 455.03 313.56 433.75 301.28"/><path class="cls-3" d="M455,265.14l20.65,11.92v23.85L455,312.82l-20.65-11.93V277.06L455,265.14m0-1.46-21.91,12.66v25.3L455,314.29,477,301.64v-25.3l-21.91-12.66Z"/><polygon class="cls-4" points="521.95 276.34 521.95 301.64 500.04 314.29 478.13 301.64 478.13 276.34 500.04 263.68 521.95 276.34"/><polygon class="cls-2" points="566.96 276.34 566.96 301.64 545.05 314.29 523.14 301.64 523.14 276.34 545.05 263.68 566.96 276.34"/><polygon class="cls-4" points="409.37 237.72 409.37 263.02 387.46 275.67 365.55 263.02 365.55 237.72 387.46 225.07 409.37 237.72"/><polygon class="cls-2" points="456.2 262.65 456.2 238.07 477.48 225.78 498.77 238.07 498.77 262.65 477.48 274.93 456.2 262.65"/><path class="cls-3" d="M477.48,226.51l20.66,11.92v23.85l-20.66,11.93-20.65-11.93V238.43l20.65-11.92m0-1.46-21.91,12.66V263l21.91,12.65L499.4,263v-25.3Z"/><polygon class="cls-2" points="501.21 262.65 501.21 238.07 522.49 225.78 543.77 238.07 543.77 262.65 522.49 274.93 501.21 262.65"/><path class="cls-3" d="M522.49,226.51l20.65,11.92v23.85l-20.65,11.93-20.65-11.93V238.43l20.65-11.92m0-1.46-21.91,12.66V263l21.91,12.65L544.41,263v-25.3Z"/><polygon class="cls-4" points="589.41 237.71 589.41 263.01 567.5 275.66 545.59 263.01 545.59 237.71 567.5 225.05 589.41 237.71"/><polygon class="cls-4" points="139.4 314.96 139.4 340.27 117.49 352.92 95.58 340.27 95.58 314.96 117.49 302.31 139.4 314.96"/><polygon class="cls-2" points="141.21 339.9 141.21 315.33 162.5 303.04 183.78 315.33 183.78 339.9 162.5 352.19 141.21 339.9"/><path class="cls-3" d="M162.5,303.82l20.65,11.92v23.85L162.5,351.51l-20.66-11.92v-23.9l20.66-11.87m0-1.46L140.58,315v25.31L162.5,353l21.91-12.65V315L162.5,302.31Z"/><polygon class="cls-4" points="229.42 314.96 229.42 340.27 207.5 352.92 185.59 340.27 185.59 314.96 207.5 302.31 229.42 314.96"/><polygon class="cls-2" points="231.23 339.9 231.23 315.33 252.51 303.04 273.8 315.33 273.8 339.9 252.51 352.19 231.23 339.9"/><path class="cls-3" d="M252.51,303.82l20.66,11.92v23.85l-20.66,11.92-20.65-11.92v-23.9l20.65-11.87m0-1.46L230.6,315v25.31L252.51,353l21.92-12.65V315l-21.92-12.65Z"/><polygon class="cls-4" points="319.44 314.96 319.44 340.27 297.52 352.92 275.61 340.27 275.61 314.96 297.52 302.31 319.44 314.96"/><polygon class="cls-4" points="364.44 314.96 364.44 340.27 342.53 352.92 320.62 340.27 320.62 314.96 342.53 302.31 364.44 314.96"/><polygon class="cls-2" points="409.45 314.96 409.45 340.27 387.54 352.92 365.63 340.27 365.63 314.96 387.54 302.31 409.45 314.96"/><polygon class="cls-2" points="454.46 314.96 454.46 340.27 432.55 352.92 410.64 340.27 410.64 314.96 432.55 302.31 454.46 314.96"/><polygon class="cls-2" points="499.47 314.96 499.47 340.27 477.56 352.92 455.64 340.27 455.64 314.96 477.56 302.31 499.47 314.96"/><polygon class="cls-4" points="544.47 314.94 544.47 340.25 522.56 352.9 500.64 340.25 500.64 314.94 522.56 302.29 544.47 314.94"/><polygon class="cls-2" points="521.88 199.09 521.88 224.39 499.97 237.04 478.06 224.39 478.06 199.09 499.97 186.43 521.88 199.09"/><polygon class="cls-2" points="566.89 199.09 566.89 224.39 544.98 237.04 523.07 224.39 523.07 199.09 544.98 186.43 566.89 199.09"/><polygon class="cls-4" points="589.45 160.47 589.45 185.77 567.53 198.43 545.62 185.77 545.62 160.47 567.53 147.82 589.45 160.47"/><polygon class="cls-4" points="72.8 430.64 72.8 455.94 50.88 468.6 28.97 455.94 28.97 430.64 50.88 417.99 72.8 430.64"/><polygon class="cls-2" points="161.9 353.62 161.9 378.92 139.98 391.58 118.07 378.92 118.07 353.62 139.98 340.97 161.9 353.62"/><polygon class="cls-4" points="206.9 353.62 206.9 378.92 184.99 391.58 163.08 378.92 163.08 353.62 184.99 340.97 206.9 353.62"/><polygon class="cls-2" points="251.91 353.62 251.91 378.92 230 391.58 208.09 378.92 208.09 353.62 230 340.97 251.91 353.62"/><polygon class="cls-2" points="253.72 378.56 253.72 353.99 275.01 341.7 296.29 353.99 296.29 378.56 275.01 390.85 253.72 378.56"/><path class="cls-3" d="M275,342.43l20.65,11.92V378.2L275,390.12,254.31,378.2V354.35L275,342.43m0-1.46-21.88,12.65v25.31L275,391.58l22-12.65V353.62Z"/><polygon class="cls-4" points="341.93 353.62 341.93 378.92 320.02 391.58 298.1 378.92 298.1 353.62 320.02 340.97 341.93 353.62"/><polygon class="cls-4" points="386.94 353.62 386.94 378.92 365.02 391.58 343.11 378.92 343.11 353.62 365.02 340.97 386.94 353.62"/><polygon class="cls-4" points="431.95 353.62 431.95 378.92 410.03 391.58 388.12 378.92 388.12 353.62 410.03 340.97 431.95 353.62"/><polygon class="cls-4" points="476.96 353.62 476.96 378.92 455.04 391.58 433.13 378.92 433.13 353.62 455.04 340.97 476.96 353.62"/><polygon class="cls-2" points="521.96 353.62 521.96 378.92 500.05 391.58 478.14 378.92 478.14 353.62 500.05 340.97 521.96 353.62"/><polygon class="cls-4" points="229.41 392.26 229.41 417.56 207.49 430.21 185.58 417.56 185.58 392.26 207.49 379.61 229.41 392.26"/><polygon class="cls-4" points="274.42 392.26 274.42 417.56 252.5 430.21 230.59 417.56 230.59 392.26 252.5 379.61 274.42 392.26"/><polygon class="cls-4" points="319.42 392.26 319.42 417.56 297.51 430.21 275.6 417.56 275.6 392.26 297.51 379.61 319.42 392.26"/><polygon class="cls-4" points="364.43 392.26 364.43 417.56 342.52 430.21 320.61 417.56 320.61 392.26 342.52 379.61 364.43 392.26"/><polygon class="cls-4" points="409.44 392.26 409.44 417.56 387.53 430.21 365.61 417.56 365.61 392.26 387.53 379.61 409.44 392.26"/><polygon class="cls-4" points="454.45 392.26 454.45 417.56 432.54 430.21 410.62 417.56 410.62 392.26 432.54 379.61 454.45 392.26"/><polygon class="cls-4" points="296.92 430.89 296.92 456.2 275 468.85 253.09 456.2 253.09 430.89 275 418.24 296.92 430.89"/><polygon class="cls-4" points="478.02 430.64 478.02 455.94 456.11 468.6 434.2 455.94 434.2 430.64 456.11 417.99 478.02 430.64"/></g><g id="labels"><text class="cls-5" transform="translate(60.09 179.59)">AK</text><g class="cls-6"><text class="cls-7" transform="translate(103.09 256.59)">W</text><text class="cls-8" transform="translate(118.51 256.59)">A</text></g><g class="cls-6"><text class="cls-5" transform="translate(150.09 256.59)">M</text><text class="cls-9" transform="translate(164.25 256.59)">T</text></g><text class="cls-5" transform="translate(195.09 256.59)">ND</text><text class="cls-5" transform="translate(239.19 256.59)">MN</text><text class="cls-5" transform="translate(287.52 256.59)">WI</text><text class="cls-5" transform="translate(377.78 256.59)">MI</text><g class="cls-6"><text class="cls-5" transform="translate(466.22 256.59)">N</text><text class="cls-9" transform="translate(478.5 256.59)">Y</text></g><g class="cls-6"><text class="cls-5" transform="translate(510.22 256.59)">M</text><text class="cls-8" transform="translate(524.38 256.59)">A</text></g><text class="cls-5" transform="translate(558.77 256.59)">RI</text><text class="cls-5" transform="translate(131.09 295.59)">ID</text><g class="cls-6"><text class="cls-5" transform="translate(172.23 295.59)">W</text><text class="cls-9" transform="translate(188.28 295.59)">Y</text></g><text class="cls-5" transform="translate(219.04 295.59)">SD</text><g class="cls-6"><text class="cls-5" transform="translate(266.68 295.59)">I</text><text class="cls-8" transform="translate(271.4 295.59)">A</text></g><g class="cls-6"><text class="cls-5" transform="translate(313.08 295.59)">I</text><text class="cls-10" transform="translate(317.8 295.59)">L</text></g><text class="cls-5" transform="translate(356.48 295.59)">IN</text><text class="cls-5" transform="translate(397.04 295.59)">OH</text><g class="cls-6"><text class="cls-11" transform="translate(444.06 295.59)">P</text><text class="cls-8" transform="translate(454.15 295.59)">A</text></g><text class="cls-5" transform="translate(489.46 295.59)">NJ</text><g class="cls-6"><text class="cls-5" transform="translate(533.79 295.59)">C</text><text class="cls-9" transform="translate(546.07 295.59)">T</text></g><text class="cls-5" transform="translate(103.84 334.34)">OR</text><text class="cls-5" transform="translate(150.09 334.34)">NV</text><text class="cls-5" transform="translate(195.09 334.34)">CO</text><text class="cls-5" transform="translate(240.74 334.34)">NE</text><text class="cls-5" transform="translate(284.32 334.34)">MO</text><g class="cls-6"><text class="cls-5" transform="translate(330.96 334.34)">K</text><text class="cls-9" transform="translate(342.3 334.34)">Y</text></g><text class="cls-5" transform="translate(373.78 334.34)">WV</text><g class="cls-6"><text class="cls-12" transform="translate(421.03 334.34)">V</text><text class="cls-8" transform="translate(431.12 334.34)">A</text></g><text class="cls-5" transform="translate(465.13 334.34)">MD</text><text class="cls-5" transform="translate(510.22 334.34)">DE</text><g class="cls-6"><text class="cls-5" transform="translate(128.09 372.71)">C</text><text class="cls-8" transform="translate(140.37 372.71)">A</text></g><g class="cls-6"><text class="cls-5" transform="translate(173.82 372.71)">U</text><text class="cls-9" transform="translate(186.1 372.71)">T</text></g><text class="cls-5" transform="translate(217.04 372.71)">NM</text><text class="cls-5" transform="translate(263.32 372.71)">KS</text><text class="cls-5" transform="translate(308.5 372.71)">AR</text><text class="cls-5" transform="translate(353.14 372.71)">TN</text><text class="cls-5" transform="translate(398.04 372.71)">NC</text><text class="cls-5" transform="translate(443.06 372.71)">SC</text><text class="cls-5" transform="translate(488.46 372.71)">DC</text><text class="cls-5" transform="translate(41.71 449.71)">HI</text><text class="cls-5" transform="translate(196.09 410.71)">AZ</text><text class="cls-5" transform="translate(240.74 410.71)">OK</text><g class="cls-6"><text class="cls-13" transform="translate(287.32 410.71)">L</text><text class="cls-8" transform="translate(296.77 410.71)">A</text></g><text class="cls-5" transform="translate(330.72 410.71)">MS</text><g class="cls-6"><text class="cls-14" transform="translate(377.78 410.71)">A</text><text class="cls-10" transform="translate(389.12 410.71)">L</text></g><g class="cls-6"><text class="cls-5" transform="translate(420.87 410.71)">G</text><text class="cls-8" transform="translate(434.09 410.71)">A</text></g><text class="cls-5" transform="translate(263.6 450.71)">TX</text><g class="cls-6"><text class="cls-5" transform="translate(446.52 450.71)">F</text><text class="cls-10" transform="translate(456.9 450.71)">L</text></g><g class="cls-6"><text class="cls-5" transform="translate(488.46 219.36)">V</text><text class="cls-9" transform="translate(499.8 219.36)">T</text></g><text class="cls-5" transform="translate(533.79 219.36)">NH</text><text class="cls-5" transform="translate(555.35 179.59)">ME</text></g></g></g></g></svg>